<?xml version="1.0" encoding="UTF-8"?>
<svg id="Layer_2" data-name="Layer 2" xmlns="http://www.w3.org/2000/svg" viewBox="0 0 181.38 55.61">
  <defs>
    <style>
      .cls-1 {
        fill: #ebe0bb;
        font-family: Poppins-Bold, Poppins;
        font-size: 23.69px;
        font-weight: 700;
      }

      .cls-2 {
        fill: #79aad7;
      }
    </style>
  </defs>
  <g id="Layer_1-2" data-name="Layer 1">
    <g>
      <g id="qTin4f">
        <path class="cls-2" d="M153.59,55.61c2.13.01,4.26-.63,5.92-1.95,1.52-1.21,2.3-3.14,4.57-3.14,1.72,0,2.71.35,4.53-.16,3.81-1.06,6.69-4.41,7.02-8.39.15-1.85-.58-3.27.72-4.9.58-.73,1.75-1.33,2.42-2.02,3.33-3.41,3.44-9.11.51-12.8-.88-1.11-2.48-1.84-2.88-3.26-.42-1.52.25-3.53-.05-5.3-.72-4.28-4.43-7.64-8.76-7.96-2.09-.15-3.6.75-5.42-.85-.73-.64-1.4-1.86-2.15-2.55-1.5-1.36-3.65-2.17-5.65-2.31C154.13,0,153.88,0,153.63,0h-18.19s-107.69,0-107.69,0c-.25,0-.49,0-.74.03-2.01.14-4.15.95-5.65,2.31-.76.69-1.43,1.91-2.15,2.55-1.82,1.6-3.33.7-5.42.85-4.33.31-8.03,3.68-8.76,7.96-.3,1.77.37,3.78-.05,5.3-.4,1.42-1.99,2.15-2.88,3.26-2.93,3.69-2.82,9.39.51,12.8.67.69,1.84,1.28,2.42,2.02,1.3,1.63.56,3.05.72,4.9.33,3.98,3.21,7.33,7.02,8.39,1.82.51,2.81.16,4.53.16,2.27,0,3.06,1.94,4.57,3.14,1.66,1.32,3.79,1.97,5.92,1.95h125.79Z"/>
      </g>
      <text class="cls-1" transform="translate(23.53 35.71)"><tspan x="0" y="0">OUR STORY</tspan></text>
    </g>
  </g>
</svg>