<?xml version="1.0" encoding="UTF-8"?>
<svg id="Layer_2" data-name="Layer 2" xmlns="http://www.w3.org/2000/svg" xmlns:xlink="http://www.w3.org/1999/xlink" viewBox="0 0 1919.87 873.99">
  <defs>
    <style>
      .cls-1 {
        fill: none;
      }

      .cls-2 {
        fill: #79aad7;
      }

      .cls-3 {
        clip-path: url(#clippath);
      }

      .cls-4 {
        fill: #066;
      }
    </style>
    <clipPath id="clippath">
      <rect class="cls-1" x="0" width="1919.87" height="873.99"/>
    </clipPath>
  </defs>
  <g id="Layer_1-2" data-name="Layer 1">
    <g class="cls-3">
      <g>
        <path class="cls-2" d="M8.33,860.53c.06,2.38.84,4.97.82,5.31-.03.36-2.15,6.52-2.43,6.74-3.34,2.58-8.32-5.29-12.35-6.07-.35-.32-.65-.69-1-1,.25-2.16-2.48-3.25-2.83-4.68-.78-3.16,4.61-9.4,6.78-11.79,2.39-2.64,5.18-4.73,7.84-7.04-1.16-12.85-6.42-28.78-4.81-41.29,1.39-.81,3.87-2.58,4.99-2.99-2.63,3.39-4.2,3.68-4.07,8.48.47,17.39,6.61,36.03,7.06,54.33Z"/>
        <path class="cls-2" d="M84.1,537.49c-16.11,18.64-26.92,44.11-36.26,66.93-3.27,8-6.37,16.55-8.61,24.79-1.44.14-1.62-2.36-2-3.47-6.33-18.64-10.23-45.33-33.64-50.12-13.49-2.76-21.11.39-33.15,5.73v-109.67c15.54-4.04,25.74-17.34,36.89-27.92,36.25,27.13,58.89,50.35,76.77,93.72Z"/>
        <path class="cls-2" d="M-29.56,790.74v-177.47c8.58-3.31,12-17.87,21.97-8.51,17.47,16.4,17.15,53.95,24.94,75.83-15,36.98-28.94,74.53-46.91,110.15Z"/>
        <path class="cls-2" d="M1313.61,831.84c.48,3.45-2.19,4.89-3.38,7.02-4.86,8.71-9.41,19.47-14.82,27.58-1.51,2.26-4.27,4.19-4.92,7.02h-68.6c12.89-11.58,28.33-21.51,44.18-28.66,14.16-6.38,32.1-11.36,47.54-12.97Z"/>
        <path class="cls-2" d="M1362.23,833.55c.41.49.22.91.71,1.37l19.76,38.54h-61.39c2.37-4.48,3.14-9.58,4.79-14.09,3.35-9.13,9.59-18.42,9.08-28.3,8.78.06,18.42.64,27.04,2.48Z"/>
        <path class="cls-4" d="M-.2,323.63c5.15-1.06,9.56-4.23,14.29-6.26,1.27-.54,6.02-1.03,7.44-1.89.33-.2,2.6-5.19,3.79-6.71,13.93-17.88,29.5-24.73,52.03-18.32,8.25,2.35,15.14,7.19,22.2,11.77.26,1.47-.2,1.95-1.07,2.94-2.34,2.64-10.83,8.35-14.21,10.72-22.47,15.71-35.3,19.94-61.3,8.04-1.74-.8-.84-3.82-5.2-1.75-1.73.82-4.98,3.15-6.26,3.74-3.65,1.7-7.89,3.4-11.72,4.7v-6.98Z"/>
        <path class="cls-4" d="M23.29,833.61c.46,2.88.55,6.17,1,8.97,2.23,13.93,5.74,27.86,6.98,41.88H14.31c-.9-6.94-2.53-13.76-3.85-20.63-.35-1.85.85-3.88-2.14-3.3-.44-18.3-6.59-36.94-7.06-54.33-.13-4.8,1.44-5.08,4.07-8.48,2.96-1.09,9.91-2.34,11.9.57,2.25,3.3,5.07,29.22,6.05,35.33Z"/>
        <path class="cls-4" d="M-.2,212.96c2.83-3.44,3.92-7.54,6.12-11.31,7.71-13.2,15.23-26.26,22.51-39.28.45-.81,4.2-4.65,4.26-4.98.68-3.34-2.52-10.76-2.85-14.84-.92-11.06,5.33-26.78,18.26-25.31,15.9,1.81,23.24,23.44,11.47,34.34-2.01,1.86-10.12,5.75-12.68,6.26-2.36.47-9.49-.1-10.08.45-.5.48-3.13,7.45-3.81,8.55s-1.87,1.31-2.27,1.98c-10.44,17.33-18.86,36.02-30.93,52.11v-7.98Z"/>
        <path class="cls-4" d="M1396.3,847.49c-.66,8.2-2.12,16.67-4.62,24.67h-10.79c-2.84-7.16-6.62-13.92-10.02-20.81,3.15-2.13,1.78-5.14,2.49-7.91.43-1.66,2.85-3.12,2.9-5.19,8.29,3.1,12.18,4.71,20.04,9.25Z"/>
        <path class="cls-2" d="M.35,800.71c-1.61,12.51,3.65,28.44,4.81,41.29-2.66,2.32-5.45,4.41-7.84,7.04-2.17,2.39-7.56,8.63-6.78,11.79.35,1.43,3.09,2.52,2.83,4.68-2.35-2.07-16.23-13.07-18.39-14.06-1.86-.85-2.71-1.3-4.54.1v-6.98c4.28-.68,5.86-4.17,8.2-7.26,7.61-10.07,11.84-21.18,18.12-31.72,1.85-3.11-.66-2.42,3.59-4.88Z"/>
        <path class="cls-2" d="M.35,800.71c1.18-9.18,10.85-24.06,15.14-33.22,3.96-8.46,7.02-17.6,10.82-26.07.54-1.2.53-2.72,2.44-2.54,3.8,14.89,8.7,29.74,15.12,43.72,2.65,5.76,5.75,12.64,10.31,17.11-7.46,10.47-17.48,22.76-26.9,31.43-1.23,1.13-2.05,2.5-4,2.47-.99-6.1-3.8-32.03-6.05-35.33-1.99-2.91-8.93-1.66-11.9-.57-1.12.41-3.59,2.18-4.99,2.99Z"/>
        <path class="cls-2" d="M52.2,845.57l-3.99,38.88h-16.95c-1.24-14.01-4.75-27.94-6.98-41.88,9.6-1.06,18.65,1.23,27.92,2.99Z"/>
        <path class="cls-2" d="M1427.13,872.16h-35.46c2.51-7.99,3.97-16.46,4.62-24.67,6.99,4.04,13.35,7.96,19.64,13.12,3.84,3.16,8.96,7.17,11.2,11.54Z"/>
        <path class="cls-2" d="M128.97,884.46h-46.86c2.07-9.17,5.07-18.45,4.99-27.92,15.35,6.91,30.12,15.83,41.88,27.92Z"/>
        <path class="cls-4" d="M-6.62,865.51c.35.31.65.68,1,1,4.09,3.69,9.62,9.75,13.48,13.94,1.13,1.23,2.5,2.05,2.47,4H-10.61l-18.94-20.94v-11.96c1.83-1.4,2.68-.95,4.54-.1,2.16.99,16.04,11.99,18.39,14.06Z"/>
        <path class="cls-2" d="M8.33,860.53c2.99-.58,1.78,1.45,2.14,3.3,1.32,6.87,2.95,13.7,3.85,20.63h-3.99c.02-1.95-1.34-2.77-2.47-4-3.86-4.19-9.39-10.26-13.48-13.94,4.02.77,9,8.65,12.35,6.07.28-.22,2.41-6.38,2.43-6.74s-.76-2.93-.82-5.31Z"/>
        <path class="cls-2" d="M1646.32,813.37c-3.77,7.11-7.97,14.23-12.78,20.75-13.11,17.75-26.45,34.31-43.87,47.86-15.56,12.1-32.52,20.15-52.8,17.72,11.27-50.05,53.93-97.31,109.45-86.33Z"/>
        <path class="cls-2" d="M97.07,581.36c12.64,64.95,5.34,126.41-23.93,185.45-3.26,2.17-1.36.12-1.97-1.51-6.8-18.32-13.61-36.89-17.7-56.09-.88-4.15-4.6-23.84-4.34-26.66.42-4.57,9.76-21.11,12.22-26.74,10.16-23.21,21.11-49.94,32.91-71.83.75-1.39.38-3.16,2.81-2.63Z"/>
        <path class="cls-2" d="M1376.26,838.24c-.05,2.07-2.24,10.98-5.4,13.1-2.9-5.87-6.41-12.11-9.28-17.99,2.8.42,13.5,4.44,14.67,4.88Z"/>
        <g>
          <path class="cls-2" d="M1728.11,788.4c-.21,2.09-.72,13.01,1.09,13.4,1.41.3,8.97-10.59,10.9-11.81,23.85-41.69,36.45-96.71,69.24-133.1,3.16-3.51,7.17-7.65,11.19-10.01-7.14-4.7-10.62-6.99-18.5-10.79-9.52,6.44-17.33,14.84-23.88,24.29-19.66,28.32-46.61,93.89-50.03,128.02Z"/>
          <path class="cls-2" d="M1903.36,352.43c3.47-2.05,8.13-6.09,11.2-8.84,32.15-28.82,48.37-72.69,61.86-112.34,7.54-22.17,14.81-44.44,23.69-66.11-51.63,17.51-87.78,75.18-96.88,127.04-3.57,20.33-2.4,39.98-1.78,60.26.33-3.81.53.81,1.91,0Z"/>
          <path class="cls-2" d="M2044.82,158.98c-4.14-.47-7.41-.99-11.56,0,.57.08,1.87,1.3,3.09.78l-.12,1.8c-11.27,15.5-22.67,33.62-29.18,51.75-5.57,15.49-7.95,31.24-12.71,46.64-12.4,40.06-44.2,90-79.68,113.02-1.75,1.14-11.25,7.24-12.39,6.43-3.22-5.41-.12-9.98-.01-15.06.03-1.6-.78-2.8-.79-3.41-23.55,12.58-53.1,44.06-71.84,73.31-1.12.55-1.56,1.65-2.06,2.71-.35.73-.68,1.48-1.02,2.22,0,.01-.01.02-.02.03,0,0,0,0,0,0-7.47,16.57-12.57,36.2-15.14,54.02-7.44,51.57-1.99,104.45,11.46,154.44.88.6,3.58,2.55,6.46,4.68-.04,4.44.56,9.04.03,13.45-.28,2.35-.89,4.62-1.66,6.85-.4.44-.73.81-.94,1.07-15.22,18.95-26.65,41.38-36.43,63.59-9.99,22.7-28.08,74.34-48.79,87.63-5.23,3.36-6.16,1.71-10.58,2.46-2.21.37-4.01,2.33-7.16,2.26-1.11-.03-6.73-1.74-7.85-2.24-9.14-4.11-11.46-23.44-11.49-32.27-.08-20.74,7.41-39.82,14.12-58.68,11.78-33.1,25.2-67.68,48.81-94.56,4.24-4.83,9.79-8.48,13.86-13.51-13.31-3.43-19.3-4.07-33.3-1.32-39.12,7.69-59.68,43.34-69.21,79.16-3.57,12.72-1.48,82.35,6.73,107.73,2.31,7.13,5.88,13.78,7.9,20.99-7.41-4.57-14.67-9.58-22.59-13.28-1.06-.49-2.27-.35-2.83-.6-2.28,4.85-3.86,10.06-6.39,14.81-16.7,31.39-49,67.8-81.46,82.72l-13.9,5.76h35.46c7.58-12.24,19.98-17.22,34.23-15.35,6.57.86,16.63,8.57,18.18,15.35h102.51c.3-8.37,5.19-14.68,8.08-22.37,7.58-20.2,9.36-36.46,12.67-57.47,5.47-34.66,10.28-59.84,29.47-90,7.21-11.32,15.08-21.91,24.68-29.43.83,1.01,1.67,2,2.53,2.97.91,1.03,1.87,2.09,3.13,2.66,2.91,1.33,6.55-.24,9.42,1.17,1.95.95,3.04,3.02,4.52,4.6.61.65,1.27,1.19,1.98,1.68-7.74,4.55-14.82,11.58-19.73,18.22-33.17,44.86-26.3,109.56-48.84,160.04-1.21,2.71-3.55,4.86-4.01,7.94h16.19c11.23-26.09,18.94-55.77,37.37-77.86,13.4-16.06,33.69-29.46,53.18-13.85,7.58,6.08,11.69,15.78,15.05,24.65-5.86,4-12.49,9.79-17.73,14.64-2.96-7.8-7.91-23.13-16.93-25.88-2.63-.8-7.37,3.17-9.64,5.08-5.26,4.43-10.24,11.76-13.83,17.77-10.28,17.24-17.57,36.15-22.8,55.43h110.22s40.08,0,40.08,0h0s13.1,0,13.1,0h43.16c-.11-1.53.4-2.57,1.19-3.82,3.79-5.96,10.94-13.28,15.77-18.54v-198.09h0v-366.12c-3.05,2.19-4.35,6.67-6.14,9.66-25.51,42.51-38,18.61-18.51-13.12,9.3-15.15,13.39-31.1,21.28-45.77.75-1.4,1.46-3.18,3.38-3.18v-1.54l-.53-.61.53-.93v-123.33ZM1905.02,855.46c3.28-2.1,7.2-4.43,10.79-6.4-3.59,1.97-7.52,4.3-10.79,6.4ZM1934.82,904.16c-.75,3.29-1.34,6.67-1.85,10.06.52-3.39,1.1-6.77,1.85-10.06,1.31-5.73,2.71-11.44,4.19-17.13-1.48,5.69-2.88,11.4-4.19,17.13ZM1942.3,838.81c-7.06,1.85-15.01,4.54-21.58,7.71.96-1.18.36-2.3.15-3.56-3.86-22.76-18.86-75.09-31.86-96.41,6.78-2.19,13.56-4.39,20.35-6.58,19.18,25.61,31.27,67.39,33.52,94.85.12,1.48.44,2.65-.58,3.99,1.49-.39,3.02-.82,4.57-1.19-1.55.38-3.07.8-4.57,1.19ZM1990.14,835.01c-.25.76-.52,1.53-.77,2.3.26-.77.52-1.54.77-2.3,10.26.58,20.14,3.45,29.69,7.31-9.55-3.86-19.43-6.73-29.69-7.31ZM2012.4,705.4c2.03-4.2,4.55-8.16,6.57-12.35,1.99,3.93,3.69,7.64,4.83,10.69.76,2.03.99,6.78,1.79,8.85.29.76,2.7,1.51,2.27,3.66h0c-5.05,5.95-11.06,11.08-16.19,16.96-1.45-.75-2.04-3.23-2.59-4.73-.8-2.19-1.59-4.39-2.4-6.58,1.42-5.67,3.16-11.22,5.72-16.49Z"/>
        </g>
        <path class="cls-4" d="M1883.72,723.19c-.1,1.67-2.73,10.36-2.31,10.79,1.76,1.77,4.02-3.29,4.75-4.14,1.56-1.84,3.81-3.94,5.27-5.88,2.03-.13,3.53,1.18,4.99,2.34,26.64,21.18,43.74,75.32,46.46,108.52.12,1.48.44,2.65-.58,3.99-7.06,1.85-15.01,4.54-21.58,7.71.96-1.18.37-2.3.15-3.56-4.03-23.77-20.22-79.8-33.57-99.06-16-23.07-41.74-4.11-54.01,12.49-33.17,44.86-26.3,109.56-48.84,160.04-1.21,2.71-3.55,4.86-4.01,7.94h-23.89c.3-8.37,5.19-14.68,8.08-22.37,7.58-20.2,9.36-36.46,12.67-57.47,5.47-34.66,10.28-59.84,29.47-90,15.42-24.23,33.91-45.11,65.73-39.77,1.29.22,9.43,4.13,10.44,4.98,1.09.9.85,2.25.78,3.45Z"/>
        <path class="cls-4" d="M97.07,581.36c-2.43-.53-2.06,1.24-2.81,2.63-11.8,21.88-22.75,48.62-32.91,71.83-2.46,5.62-11.81,22.17-12.22,26.74-.26,2.82,3.46,22.51,4.34,26.66,4.09,19.2,10.91,37.77,17.7,56.09.6,1.63-1.3,3.68,1.97,1.51-5.92,11.94-11.13,21.93-18.94,32.9-4.56-4.47-7.66-11.34-10.31-17.11-6.43-13.98-11.33-28.83-15.12-43.72-1.91-.18-1.9,1.34-2.44,2.54-3.81,8.47-6.86,17.61-10.82,26.07-4.29,9.16-13.95,24.04-15.14,33.22-4.25,2.47-1.74,1.78-3.59,4.88-6.28,10.55-10.51,21.66-18.12,31.72-2.34,3.1-3.92,6.58-8.2,7.26v-53.84c17.96-35.63,31.9-73.17,46.91-110.15-7.79-21.87-7.46-59.42-24.94-75.83-9.97-9.36-13.39,5.2-21.97,8.51v-31.9c12.04-5.34,19.66-8.49,33.15-5.73,23.41,4.79,27.3,31.47,33.64,50.12.38,1.11.56,3.61,2,3.47,2.25-8.24,5.34-16.79,8.61-24.79,9.34-22.82,20.15-48.29,36.26-66.93,5.9,14.3,10,28.68,12.96,43.87Z"/>
        <path class="cls-4" d="M1667.9,821.08c-2.28,4.85-3.86,10.06-6.39,14.81-16.7,31.39-49,67.8-81.46,82.72l-13.9,5.76h-33.14c.46-8.41,2.02-16.51,3.85-24.67,20.28,2.42,37.24-5.62,52.8-17.72,17.42-13.55,30.76-30.11,43.87-47.86,4.81-6.51,9.01-13.63,12.78-20.75,8.21,1.62,14.11,4.42,21.58,7.71Z"/>
        <path class="cls-4" d="M1902.22,857.31c-5.86,4-12.49,9.79-17.73,14.64-2.96-7.8-7.91-23.13-16.93-25.88-2.63-.8-7.37,3.17-9.64,5.08-5.26,4.43-10.24,11.76-13.83,17.77-10.28,17.24-17.57,36.15-22.8,55.43h-24.67c11.23-26.09,18.94-55.77,37.37-77.86,13.4-16.06,33.69-29.46,53.18-13.85,7.58,6.08,11.69,15.78,15.05,24.65Z"/>
        <path class="cls-4" d="M1335.19,831.07c.5,9.89-5.73,19.18-9.08,28.3-1.66,4.51-2.42,9.61-4.79,14.09h-30.83c.66-2.83,3.42-4.77,4.92-7.02,5.41-8.11,9.95-18.87,14.82-27.58,1.19-2.14,3.86-3.57,3.38-7.02,7.12-.74,14.42-.82,21.58-.77Z"/>
        <path class="cls-4" d="M87.1,856.54c.08,9.47-2.91,18.75-4.99,27.92h-33.9l3.99-38.88c13.99,2.67,21.91,5.12,34.9,10.97Z"/>
        <path class="cls-4" d="M7.33,443.77c-11.15,10.58-21.35,23.88-36.89,27.92v-27.92c6.01-2.9,10.98-9.14,13.96-14.96,11.93,5.72,13.29,7.74,22.93,14.96Z"/>
        <path class="cls-4" d="M1802.02,636.09c-9.52,6.44-17.33,14.84-23.88,24.29-19.66,28.32-46.61,93.89-50.03,128.02-.21,2.09-.72,13.01,1.09,13.4,1.41.3,8.97-10.59,10.9-11.81,23.85-41.69,36.45-96.71,69.24-133.1,3.16-3.51,7.17-7.65,11.19-10.01.41.27,1.58.27,2.31.77,2.11,1.44,14.57,10.51,15.05,11.58.29.66.48.97.28,1.75-.34,1.31-9.71,10.56-11.44,12.71-15.22,18.95-26.65,41.38-36.43,63.59-9.99,22.7-28.08,74.34-48.79,87.63-5.23,3.36-6.16,1.71-10.58,2.45-2.21.37-4.01,2.33-7.16,2.26-1.11-.03-6.73-1.74-7.85-2.24-9.14-4.11-11.46-23.44-11.49-32.27-.08-20.74,7.41-39.82,14.12-58.68,11.78-33.1,25.2-67.68,48.81-94.56,4.24-4.83,9.79-8.48,13.86-13.51,9.13,2.36,12.28,3.59,20.81,7.71Z"/>
        <path class="cls-4" d="M2033.25,158.98c.57.08,1.87,1.3,3.09.78l-.12,1.8c-11.27,15.5-22.67,33.62-29.18,51.75-5.57,15.49-7.95,31.24-12.71,46.64-12.4,40.06-44.2,90-79.68,113.02-1.75,1.14-11.25,7.24-12.39,6.43-3.22-5.41-.12-9.98-.01-15.06.03-1.6-.78-2.8-.79-3.41-.07-2.82.09-5.66,0-8.48.33-3.81.53.81,1.91,0,3.47-2.05,8.13-6.09,11.2-8.84,32.15-28.82,48.37-72.69,61.86-112.34,7.54-22.17,14.81-44.44,23.69-66.11,8.18-2.77,24.86-7.27,33.14-6.17Z"/>
        <path class="cls-4" d="M2041.44,288.56c-7.89,14.67-11.98,30.63-21.28,45.77-19.48,31.72-46.06,66.33-71.67,93.28-6.49,6.83-17.14,15.14-22.62,21.88-.88,1.08-20.99,29.89-23.79,34.99-15.99,29.16-25.22,73.27-15.06,104.75,1.19,3.7,4.68,13.83,6.4,16.74,2.5,4.24,6.22,4.63,10.35,6.22,1.33-11.01,2.81-38.22,2.25-40.27-5.81-21.48-2.26-42.75,9.41-61.76,40.46-65.96,97.74-120.2,123.25-162.71,1.79-2.99,3.09-7.46,6.14-9.66v-52.41c-1.92,0-2.62,1.78-3.38,3.18Z"/>
        <path class="cls-4" d="M864.07,859.43c2.85-1.78,5.89-2.97,8.79-5.11,5.66-4.18,12.51-12.2,14.99-18.93,5.4-14.66,4.13-32.66,3.25-48-1.05-1.18-13.17,7.48-14.65,8.85-12.94,11.98-22.49,30.87-19.68,48.57.16,1.01.53,4.28-.35,5.01-8.29-18.33-18.34-35.87-24.67-54.73.89-.41,14.14-11.34,14.63-12.16,5.02-23.15,9.49-46.22,16.84-68.6.56-2.25-2.96-3.44-4.74-4.15-4.15-1.67-9.31-2.51-13.62-3.72-3.61,15.6-8.2,31.04-10.03,47.02l-8.96-44.6c-5.7-.47-11.51-.32-16.54,2.7l7.77,46.52-23.68-30.88c-.83-.54-1.39-.49-2.28-.15-1.68.66-14.07,9.16-14.53,10.2l28.93,42.41-38.93-20.04c-1.69-.23-1.57,3.97-2.14,5.56-1.6,4.46-3.79,8.7-5.11,13.26l55.23,28.08c2.73.44,10.46-8.02,12.1-7.59.17.05,32.31,68.12,32.8,68.59l17.73,38.54h6.17c-2.84-7.16-6.62-13.92-10.02-20.81-2.9-5.87-9.88-21.51-10.79-23.12-.41-2.33.09-1.85,1.49-2.73Z"/>
      </g>
    </g>
  </g>
</svg>