<?xml version="1.0" encoding="UTF-8"?>
<svg id="Layer_2" data-name="Layer 2" xmlns="http://www.w3.org/2000/svg" viewBox="0 0 256.43 256.92">
  <defs>
    <style>
      .cls-1 {
        fill: #ebe0bb;
        stroke: #ef5523;
        stroke-miterlimit: 10;
        stroke-width: 1.64px;
      }
    </style>
  </defs>
  <g id="Layer_1-2" data-name="Layer 1">
    <g id="qTin4f">
      <path class="cls-1" d="M124.81.94c10.8-.76,21.37,2,30.05,8.55,4.33,3.27,9.24,10.77,13.6,12.78,6.76,3.13,14.78.61,22.14,1.24,19.96,1.7,37,20.18,38.64,39.9.81,9.75-3.3,16.4,5.09,24.28,4.18,3.93,9.17,6.91,12.8,11.78,12.14,16.32,11.06,39.9-1.98,55.35-5.08,6.02-11.91,7.57-12.9,16.47-.55,4.93,1.08,9.73,1.08,14.39.02,21.95-17.82,42.06-39.76,44.05-6.67.6-13.94-1.81-20.06.32-7.52,2.62-11.73,11.76-17.98,16.79-15.11,12.16-39.07,12.4-54.27.29-6.96-5.54-10.55-14.43-20.98-14.44-7.89,0-12.44,1.6-20.81-.72-17.5-4.86-30.72-20.25-32.23-38.5-.7-8.48,2.67-15-3.29-22.48-2.69-3.37-8.04-6.09-11.13-9.25-15.3-15.67-15.81-41.8-2.36-58.76,4.05-5.11,11.38-8.45,13.21-14.97,1.95-6.98-1.14-16.2.24-24.34,3.32-19.64,20.34-35.1,40.2-36.53,9.6-.69,16.54,3.43,24.88-3.9,3.33-2.93,6.42-8.54,9.89-11.69,6.88-6.25,16.74-9.97,25.95-10.62Z"/>
    </g>
  </g>
</svg>