<?xml version="1.0" encoding="UTF-8"?>
<svg id="Layer_2" data-name="Layer 2" xmlns="http://www.w3.org/2000/svg" viewBox="0 0 207.35 268.42">
  <defs>
    <style>
      .cls-1 {
        fill: #ebe0bb;
      }

      .cls-2 {
        fill: none;
        stroke: #ef5523;
        stroke-miterlimit: 10;
        stroke-width: 1.15px;
      }

      .cls-3 {
        fill: #79aad7;
      }
    </style>
  </defs>
  <g id="Layer_1-2" data-name="Layer 1">
    <g>
      <g id="qTin4f">
        <path class="cls-2" d="M128.92,83.54c7.86.9,15.09,4.29,20.45,10.16,2.67,2.92,5.2,8.97,8.06,11,4.44,3.15,10.53,2.42,15.74,3.85,14.11,3.89,23.89,19.44,22.43,33.82-.72,7.11-4.56,11.34.41,18.12,2.48,3.38,5.66,6.19,7.62,10.17,6.54,13.34,2.62,30.14-8.82,39.49-4.46,3.65-9.57,3.85-11.47,10.11-1.05,3.47-.52,7.13-1.14,10.48-2.92,15.77-18.42,27.84-34.44,26.33-4.87-.46-9.77-3.16-14.45-2.45-5.75.87-9.99,6.88-15.16,9.66-12.48,6.71-29.72,3.69-39.02-7.04-4.26-4.91-5.65-11.77-13.15-13.17-5.67-1.06-9.15-.51-14.85-3.3-11.92-5.83-19.36-18.65-18.01-31.96.63-6.19,3.92-10.42.64-16.59-1.48-2.78-4.96-5.44-6.76-8.13-8.89-13.3-5.77-32.14,6.15-42.52,3.59-3.13,9.31-4.55,11.48-8.99,2.33-4.76,1.35-11.79,3.42-17.45,5-13.66,19.29-22.49,33.76-20.87,6.99.78,11.42,4.68,18.39.52,2.79-1.66,5.75-5.27,8.67-7.08,5.78-3.57,13.36-4.93,20.06-4.16Z"/>
      </g>
      <g>
        <g id="qTin4f-2" data-name="qTin4f">
          <path class="cls-3" d="M107.05.21c7.86.9,15.09,4.29,20.45,10.16,2.67,2.92,5.2,8.97,8.06,11,4.44,3.15,10.53,2.42,15.74,3.85,14.11,3.89,23.89,19.44,22.43,33.82-.72,7.11-4.56,11.34.41,18.12,2.48,3.38,5.66,6.19,7.62,10.17,6.54,13.34,2.62,30.14-8.82,39.49-4.46,3.65-9.57,3.85-11.47,10.11-1.05,3.47-.52,7.13-1.14,10.48-2.92,15.77-18.42,27.84-34.44,26.33-4.87-.46-9.77-3.16-14.45-2.45-5.75.87-9.99,6.88-15.16,9.66-12.48,6.71-29.72,3.69-39.02-7.04-4.26-4.91-5.65-11.77-13.15-13.17-5.67-1.06-9.15-.51-14.85-3.3-11.92-5.83-19.36-18.65-18.01-31.96.63-6.19,3.92-10.42.64-16.59-1.48-2.78-4.96-5.44-6.76-8.13-8.89-13.3-5.77-32.14,6.15-42.52,3.59-3.13,9.31-4.55,11.48-8.99,2.33-4.76,1.35-11.79,3.42-17.45,5-13.66,19.29-22.49,33.76-20.87,6.99.78,11.42,4.68,18.39.52,2.79-1.66,5.75-5.27,8.67-7.08C92.76.79,100.34-.56,107.05.21Z"/>
        </g>
        <g>
          <g>
            <path class="cls-1" d="M138.96,37.17c.3.67.39,1.36.27,2.07-.12.7-.46,1.39-1,2.06-.54.67-1.14,1.13-1.8,1.4-.66.27-1.35.32-2.07.16-.72-.16-1.43-.53-2.15-1.1l-1.91-1.55,5.22-6.46,1.91,1.55c.72.58,1.22,1.2,1.53,1.88ZM135.27,42.18c.85-.09,1.62-.56,2.3-1.4.69-.85.99-1.7.9-2.56-.08-.86-.58-1.65-1.48-2.38l-1.27-1.02-4.36,5.39,1.27,1.02c.9.73,1.77,1.05,2.63.96Z"/>
            <path class="cls-1" d="M142.73,47.59l-3.76-3.86c-.33.36-.55.74-.65,1.14-.1.4-.09.78.02,1.16.12.37.32.71.6,1,.38.39.79.62,1.23.7s.87.01,1.27-.21l.61.63c-.57.33-1.17.45-1.82.35-.65-.09-1.25-.42-1.79-.98-.42-.44-.71-.93-.85-1.46s-.13-1.08.04-1.63.5-1.05.98-1.53c.48-.47,1-.78,1.55-.94.55-.16,1.09-.16,1.62,0,.53.16,1.01.46,1.44.9.43.44.71.92.84,1.44.13.52.12,1.03-.03,1.53-.15.5-.43.94-.83,1.32-.2.2-.37.35-.49.44ZM143.33,45.46c.1-.38.1-.76-.02-1.13-.12-.37-.32-.7-.61-1-.43-.44-.94-.68-1.53-.72s-1.16.18-1.71.65l3.18,3.27c.35-.33.58-.69.68-1.07Z"/>
            <path class="cls-1" d="M148.79,45.75l-6.75,5.64-.53-.64,6.75-5.64.53.64Z"/>
            <path class="cls-1" d="M148.8,49.47l-5.15,3.96-.51-.66,5.15-3.96.51.66ZM149.4,47.94c.02-.17.1-.3.24-.41.14-.1.29-.15.45-.12.16.02.3.1.4.23.1.13.14.28.12.44-.02.17-.1.3-.24.41-.14.11-.29.15-.46.13-.17-.02-.3-.1-.4-.23-.1-.13-.14-.28-.12-.45Z"/>
            <path class="cls-1" d="M150.93,53.65l-.86-1.24-4.76,3.3-.47-.69,4.76-3.3-.51-.74.58-.4.52.74.37-.26c.58-.4,1.11-.55,1.59-.44.48.1.95.49,1.41,1.16l-.59.41c-.31-.44-.61-.7-.9-.76s-.64.04-1.04.32l-.37.26.86,1.24-.58.4Z"/>
            <path class="cls-1" d="M153.03,56.12c.38.21.72.54,1,1.01l-.74.45-.12-.19c-.31-.51-.7-.85-1.17-.99-.47-.14-1.03-.02-1.68.37l-3.1,1.88-.43-.71,5.55-3.37.43.71-.99.6c.44-.05.85.02,1.24.23Z"/>
            <path class="cls-1" d="M154.15,65.46l-2.38-4.83c-.43.24-.75.53-.97.88-.22.35-.33.71-.34,1.11,0,.39.08.77.26,1.14.24.48.56.83.95,1.05.4.22.82.28,1.27.19l.39.79c-.64.14-1.25.06-1.84-.23-.59-.29-1.06-.79-1.4-1.49-.27-.55-.39-1.1-.36-1.65.03-.56.21-1.07.55-1.53.33-.47.8-.85,1.4-1.15.6-.3,1.19-.44,1.77-.42.57.02,1.09.18,1.54.5s.82.75,1.09,1.3c.27.56.39,1.1.35,1.64s-.21,1.01-.5,1.44c-.3.43-.7.76-1.2,1.01-.26.12-.45.22-.6.27ZM155.37,63.62c.22-.33.33-.69.33-1.08,0-.39-.09-.77-.27-1.14-.27-.55-.68-.94-1.23-1.16-.55-.22-1.16-.19-1.82.09l2.01,4.1c.44-.21.77-.48.98-.81Z"/>
            <path class="cls-1" d="M152.56,68.29c.16-.56.51-.97,1.05-1.23l.3.8c-.33.16-.55.43-.65.79-.1.37-.07.79.11,1.27.16.43.38.72.67.89.29.17.58.19.88.08.21-.08.35-.21.44-.39.08-.18.13-.39.13-.62,0-.23-.02-.54-.06-.92-.05-.5-.07-.91-.05-1.24s.1-.63.26-.92.44-.5.83-.64c.3-.11.61-.12.92-.04.32.08.61.26.88.53.27.27.48.62.64,1.03.24.65.27,1.24.09,1.77-.18.52-.56.91-1.13,1.15l-.29-.78c.35-.16.58-.4.71-.74.12-.34.1-.73-.06-1.17-.15-.39-.36-.68-.63-.86-.28-.18-.55-.21-.83-.11-.24.09-.41.23-.5.43-.1.2-.15.43-.16.67s0,.57.04.97c.04.48.06.88.04,1.18-.02.3-.1.59-.24.85-.15.26-.4.47-.75.61-.33.12-.65.14-.97.06-.32-.08-.62-.26-.88-.52-.27-.26-.48-.6-.63-1.02-.26-.7-.31-1.33-.15-1.89Z"/>
            <path class="cls-1" d="M161.22,76.29c-.1.43-.33.81-.68,1.13s-.83.56-1.42.71l-3.68.95-.2-.79,3.59-.92c.68-.18,1.16-.48,1.43-.91.27-.43.33-.95.18-1.54-.16-.61-.47-1.04-.95-1.3-.48-.26-1.09-.3-1.83-.11l-3.43.88-.21-.8,8.52-2.19.21.81-3.3.85c.43.1.8.32,1.1.66s.52.74.65,1.23c.12.48.13.93.03,1.36Z"/>
            <path class="cls-1" d="M156.26,83.57c.1-.13.24-.2.41-.23.17-.02.32.02.45.12.13.1.21.24.23.41.02.16-.02.31-.12.44s-.24.21-.41.23c-.17.02-.33-.02-.46-.11s-.21-.23-.23-.4c-.02-.17.02-.32.12-.45Z"/>
            <path class="cls-1" d="M164.54,93.82c-.33.66-.81,1.16-1.44,1.51-.63.35-1.37.52-2.24.52-.86,0-1.6-.18-2.22-.52-.62-.35-1.1-.85-1.43-1.51-.33-.66-.49-1.45-.49-2.37v-2.46s8.31,0,8.31,0v2.46c0,.92-.17,1.71-.5,2.36ZM158.33,94.1c.61.61,1.45.91,2.54.91,1.09,0,1.95-.3,2.56-.91.61-.6.92-1.49.92-2.64v-1.63s-6.93,0-6.93,0v1.63c0,1.16.3,2.04.91,2.65Z"/>
            <path class="cls-1" d="M158.79,103.35l.65-5.35c-.49-.04-.92.03-1.29.2s-.67.42-.89.74c-.22.33-.35.69-.4,1.1-.06.53.01,1,.23,1.4.22.39.54.68.96.85l-.11.87c-.61-.23-1.08-.63-1.42-1.19-.34-.57-.45-1.24-.36-2.01.07-.61.27-1.13.6-1.58.33-.45.76-.78,1.29-.99s1.13-.27,1.8-.19c.67.08,1.24.28,1.71.61.47.33.81.75,1.02,1.26.21.51.28,1.07.2,1.69-.07.61-.27,1.13-.6,1.56s-.73.74-1.21.93c-.48.19-1,.26-1.55.19-.28-.03-.5-.07-.65-.1ZM160.82,102.48c.36-.16.65-.4.87-.73.22-.32.35-.69.4-1.1.08-.61-.06-1.16-.4-1.64-.34-.48-.87-.79-1.58-.92l-.55,4.53c.48.07.9.02,1.26-.14Z"/>
            <path class="cls-1" d="M164.03,106.88l-8.62-1.75.16-.82,8.62,1.75-.16.82Z"/>
            <path class="cls-1" d="M161.13,109.26l-6.31-1.52.19-.81,6.31,1.52-.19.81ZM162.69,108.77c.14-.09.3-.11.47-.07s.3.13.38.27c.08.14.11.29.07.46-.04.16-.13.29-.27.37-.14.09-.3.11-.47.07s-.3-.14-.39-.28c-.09-.14-.11-.3-.07-.46.04-.16.13-.29.27-.37Z"/>
            <path class="cls-1" d="M159.22,113.54l.42-1.45-5.56-1.63.23-.8,5.56,1.63.25-.87.67.2-.25.87.43.13c.68.2,1.13.52,1.34.96.22.44.21,1.05-.01,1.82l-.69-.2c.15-.52.16-.91.02-1.18-.14-.27-.44-.47-.9-.6l-.43-.13-.42,1.45-.67-.2Z"/>
            <path class="cls-1" d="M158.62,116.73c.08.43.03.9-.16,1.42l-.82-.3.08-.21c.2-.57.22-1.08.03-1.53-.18-.46-.63-.81-1.35-1.07l-3.41-1.23.28-.78,6.1,2.2-.28.78-1.08-.39c.32.31.52.68.6,1.11Z"/>
            <path class="cls-1" d="M152.05,123.47l2.27-4.88c-.46-.19-.89-.26-1.29-.21-.41.05-.76.19-1.07.43-.31.24-.55.55-.72.92-.23.49-.3.95-.22,1.4.08.44.3.81.65,1.11l-.37.8c-.51-.41-.83-.94-.98-1.58-.14-.64-.05-1.31.28-2.03.26-.56.61-.99,1.06-1.32.45-.32.96-.5,1.54-.54.57-.03,1.16.09,1.77.37.61.28,1.09.66,1.44,1.11.35.46.54.97.58,1.52.04.55-.07,1.11-.33,1.67-.26.56-.61.99-1.05,1.3s-.92.48-1.44.51-1.03-.07-1.53-.3c-.26-.12-.45-.22-.58-.3ZM154.25,123.27c.39-.04.74-.18,1.05-.42s.54-.55.72-.92c.26-.56.3-1.12.13-1.68s-.58-1.02-1.21-1.36l-1.93,4.14c.44.21.85.3,1.24.26Z"/>
            <path class="cls-1" d="M148.88,123.96c.54-.23,1.08-.21,1.61.04l-.44.74c-.33-.15-.67-.16-1.03-.01-.35.15-.66.44-.92.89-.23.39-.32.75-.27,1.08.05.33.21.58.49.74.19.11.38.14.58.09s.38-.15.57-.29.41-.35.68-.62c.36-.35.67-.62.93-.82s.56-.32.88-.37.66.03,1.02.24c.27.16.48.39.61.7.13.3.18.64.14,1.02s-.18.76-.41,1.14c-.36.6-.8.99-1.32,1.18s-1.06.14-1.6-.15l.43-.72c.34.17.68.21,1.02.09.34-.12.63-.38.88-.78.22-.36.31-.71.27-1.03-.04-.33-.18-.56-.43-.71-.22-.13-.44-.17-.66-.12-.22.05-.43.15-.62.3-.2.15-.44.36-.74.64-.35.34-.64.59-.89.77s-.52.29-.81.35c-.3.05-.61-.02-.95-.2-.3-.18-.52-.42-.66-.72-.14-.31-.19-.64-.15-1.02.04-.38.17-.75.4-1.13.38-.64.84-1.08,1.38-1.3Z"/>
            <path class="cls-1" d="M148.05,135.76c-.4.19-.84.25-1.31.18s-.96-.29-1.44-.66l-3.05-2.28.49-.66,2.97,2.22c.57.42,1.1.6,1.61.55.51-.06.95-.33,1.31-.82.38-.5.52-1.02.42-1.56-.1-.53-.45-1.03-1.07-1.49l-2.84-2.12.5-.67,7.05,5.27-.5.67-2.73-2.04c.19.4.25.82.18,1.27-.07.45-.25.87-.55,1.27-.29.39-.64.69-1.04.88Z"/>
            <path class="cls-1" d="M139.26,136.47c.16,0,.31.06.44.18.13.12.19.26.19.42,0,.16-.06.31-.18.43-.11.12-.25.18-.42.18-.16,0-.31-.05-.43-.18-.13-.12-.19-.26-.2-.43,0-.17.05-.31.16-.43.12-.12.26-.19.43-.19Z"/>
            <path class="cls-1" d="M136.43,149.38c-.72.15-1.41.09-2.08-.17-.66-.27-1.27-.74-1.81-1.42-.54-.66-.86-1.35-.98-2.05-.12-.7-.02-1.39.28-2.06.31-.67.82-1.29,1.53-1.87l1.92-1.54,5.21,6.47-1.92,1.54c-.72.58-1.43.94-2.16,1.09ZM132.32,144.71c-.09.85.2,1.7.88,2.55.69.85,1.46,1.33,2.31,1.43s1.74-.22,2.64-.94l1.27-1.02-4.35-5.4-1.27,1.02c-.9.73-1.4,1.51-1.49,2.37Z"/>
            <path class="cls-1" d="M125.49,150.84l4.56-2.86c-.28-.4-.6-.7-.97-.88-.37-.18-.74-.25-1.14-.22-.39.04-.76.16-1.11.38-.46.29-.77.64-.94,1.05s-.19.85-.06,1.29l-.75.47c-.2-.62-.19-1.24.04-1.85.23-.62.67-1.13,1.34-1.55.52-.33,1.05-.5,1.61-.52.56-.02,1.08.11,1.58.39.5.28.93.71,1.29,1.28.36.57.56,1.14.6,1.72.04.57-.07,1.1-.34,1.59-.27.48-.66.89-1.19,1.22-.52.33-1.05.5-1.59.52-.54.02-1.03-.1-1.48-.35-.45-.25-.83-.62-1.12-1.09-.15-.24-.26-.43-.33-.57ZM127.45,151.87c.35.18.72.25,1.11.22s.76-.17,1.11-.38c.52-.33.87-.77,1.03-1.34.16-.57.07-1.17-.28-1.81l-3.87,2.42c.25.41.55.71.9.89Z"/>
            <path class="cls-1" d="M126.03,157.15l-4.09-7.79.74-.39,4.09,7.79-.74.39Z"/>
            <path class="cls-1" d="M122.38,156.38l-2.78-5.86.75-.36,2.78,5.86-.75.36ZM123.74,157.28c.16.06.27.17.35.32.08.16.08.31.03.47-.06.15-.16.27-.31.34-.15.07-.3.08-.46.03s-.27-.16-.35-.32c-.08-.16-.08-.32-.03-.47.06-.16.16-.27.31-.34.15-.07.3-.08.46-.02Z"/>
            <path class="cls-1" d="M117.73,157.61l1.4-.58-2.21-5.35.77-.32,2.21,5.35.83-.34.27.65-.84.35.17.42c.27.65.3,1.2.09,1.65-.21.44-.68.82-1.43,1.13l-.27-.66c.5-.21.81-.45.93-.72s.09-.63-.09-1.08l-.17-.42-1.4.58-.27-.65Z"/>
            <path class="cls-1" d="M114.95,159.12c-.28.33-.68.59-1.2.77l-.28-.82.21-.07c.57-.2.97-.51,1.21-.93.24-.43.23-1-.01-1.72l-1.18-3.43.79-.27,2.11,6.14-.79.27-.38-1.09c-.04.44-.2.83-.49,1.16Z"/>
            <path class="cls-1" d="M105.53,158.24l5.23-1.29c-.14-.47-.36-.85-.65-1.14s-.63-.47-1.01-.56c-.38-.09-.77-.09-1.17.02-.52.13-.93.36-1.23.71-.29.34-.45.74-.46,1.2l-.85.21c0-.65.21-1.24.61-1.75.41-.51.99-.86,1.75-1.05.59-.15,1.16-.15,1.69,0s.99.44,1.38.86c.39.42.66.96.82,1.61.16.65.17,1.26.03,1.82s-.41,1.02-.82,1.4c-.4.38-.91.64-1.51.79-.6.15-1.16.15-1.67,0s-.95-.42-1.3-.8c-.35-.38-.59-.84-.73-1.38-.07-.28-.11-.49-.13-.64ZM107.07,159.83c.28.28.61.47.99.55.38.08.77.08,1.17-.02.6-.15,1.06-.47,1.39-.95.33-.49.43-1.09.3-1.8l-4.43,1.09c.11.47.3.85.58,1.13Z"/>
            <path class="cls-1" d="M103.21,156.08c.52.27.84.7.98,1.28l-.85.12c-.09-.36-.3-.62-.64-.8s-.76-.24-1.27-.16c-.45.06-.78.22-1.01.47s-.32.53-.27.84c.03.22.13.39.29.51.16.12.36.21.58.26.23.05.53.1.92.14.5.06.9.13,1.22.21.32.08.6.23.84.45s.39.54.45.95c.05.31,0,.62-.16.91s-.39.54-.71.75c-.32.21-.7.34-1.14.4-.69.1-1.27,0-1.75-.29-.47-.29-.77-.74-.89-1.35l.82-.12c.08.38.27.66.57.85.3.19.69.26,1.16.19.42-.06.74-.2.97-.44.23-.23.33-.49.28-.78-.04-.25-.14-.45-.32-.59s-.38-.24-.63-.29c-.24-.06-.56-.12-.96-.17-.48-.06-.87-.13-1.16-.21-.29-.08-.55-.22-.78-.42-.23-.2-.37-.49-.43-.86-.05-.34,0-.67.15-.96.15-.3.38-.55.7-.75.31-.21.69-.34,1.13-.4.74-.11,1.36-.02,1.88.26Z"/>
            <path class="cls-1" d="M93.51,162.84c-.4-.19-.72-.49-.96-.91-.24-.41-.37-.93-.4-1.54l-.14-3.8.82-.03.14,3.71c.03.7.22,1.24.59,1.6.37.36.85.53,1.47.51.63-.02,1.12-.24,1.47-.65.36-.41.52-1,.49-1.77l-.13-3.54.83-.03.32,8.79-.83.03-.13-3.41c-.19.4-.48.71-.88.94-.39.23-.84.35-1.34.37-.49.02-.94-.07-1.34-.26Z"/>
            <path class="cls-1" d="M87.44,156.44c.1.13.15.28.13.45-.02.18-.09.31-.21.42-.12.1-.27.15-.45.14-.17-.01-.3-.08-.4-.21s-.15-.27-.14-.45.09-.32.21-.42c.13-.11.27-.16.44-.14.17.02.31.09.42.21Z"/>
            <path class="cls-1" d="M75.64,162.35c-.57-.46-.96-1.04-1.17-1.72-.21-.69-.22-1.45-.04-2.3.18-.84.51-1.52.98-2.06.47-.53,1.06-.89,1.78-1.08.71-.18,1.52-.17,2.42.02l2.41.52-1.76,8.12-2.41-.52c-.9-.19-1.63-.52-2.21-.99ZM76.68,156.22c-.72.46-1.2,1.23-1.42,2.29-.23,1.07-.12,1.97.35,2.69.46.73,1.26,1.22,2.39,1.46l1.59.35,1.47-6.78-1.59-.34c-1.13-.25-2.06-.14-2.78.33Z"/>
            <path class="cls-1" d="M67.54,154.73l5.09,1.76c.14-.47.16-.91.07-1.31s-.27-.74-.54-1.02-.6-.49-.99-.62c-.51-.17-.98-.2-1.41-.07s-.78.38-1.04.76l-.83-.29c.36-.55.85-.92,1.47-1.13s1.3-.19,2.04.07c.58.2,1.05.51,1.42.92.37.41.6.91.69,1.47.09.57.03,1.17-.19,1.8-.22.64-.54,1.15-.96,1.54-.42.39-.9.64-1.45.73s-1.11.05-1.69-.16c-.58-.2-1.05-.51-1.4-.91-.35-.41-.57-.87-.66-1.38-.09-.51-.04-1.03.14-1.55.09-.27.17-.47.24-.61ZM67.96,156.91c.08.39.26.72.53,1,.27.28.6.49.99.62.58.2,1.15.19,1.69-.04.54-.23.95-.68,1.23-1.35l-4.32-1.49c-.16.45-.21.88-.13,1.27Z"/>
            <path class="cls-1" d="M62.96,159.1l3.5-8.07.76.33-3.5,8.07-.76-.33Z"/>
            <path class="cls-1" d="M61.44,157.42c.06.16.05.31-.03.47-.08.16-.19.26-.35.31-.16.05-.31.04-.46-.03-.15-.07-.25-.18-.31-.34-.06-.16-.05-.31.03-.47.08-.16.19-.26.35-.32s.31-.05.46.03c.15.07.25.19.31.35ZM61.29,155.79l2.82-5.85.75.36-2.82,5.85-.75-.36Z"/>
            <path class="cls-1" d="M57.52,153.01l1.33.72,2.77-5.08.73.4-2.77,5.08.79.43-.34.62-.79-.43-.22.4c-.34.62-.74.99-1.22,1.11-.48.12-1.07-.01-1.78-.4l.34-.63c.47.26.86.35,1.14.27.29-.08.55-.33.78-.75l.22-.4-1.32-.72.34-.62Z"/>
            <path class="cls-1" d="M54.46,151.7c-.44-.01-.89-.16-1.35-.46l.46-.73.19.12c.51.32,1.01.44,1.49.36.48-.08.93-.44,1.33-1.08l1.93-3.07.7.44-3.46,5.49-.7-.44.61-.98c-.37.25-.77.36-1.21.35Z"/>
            <path class="cls-1" d="M49.31,143.86l4.28,3.26c.28-.4.44-.81.48-1.22.04-.41-.02-.79-.19-1.14s-.42-.66-.75-.9c-.43-.33-.87-.5-1.32-.51-.45-.02-.86.11-1.22.4l-.7-.54c.51-.41,1.09-.61,1.75-.62.66,0,1.29.23,1.92.71.49.37.84.81,1.06,1.32.22.51.29,1.05.2,1.61-.09.57-.34,1.12-.74,1.65-.41.54-.87.93-1.4,1.16-.52.24-1.06.32-1.6.24-.55-.08-1.07-.31-1.56-.68-.49-.38-.84-.81-1.05-1.31-.2-.5-.27-1-.19-1.51.08-.52.29-.99.62-1.43.17-.23.31-.4.42-.51ZM49.03,146.05c-.05.39.02.77.19,1.12.17.35.42.65.75.9.49.38,1.03.54,1.62.49.59-.05,1.12-.35,1.59-.89l-3.63-2.77c-.3.38-.47.76-.52,1.16Z"/>
            <path class="cls-1" d="M49.52,140.67c.11.57-.02,1.1-.39,1.57l-.62-.59c.22-.29.3-.63.23-1-.07-.37-.29-.73-.67-1.09-.33-.31-.66-.47-1-.49-.33-.02-.61.08-.83.32-.15.16-.23.34-.22.55s.06.41.16.62c.1.21.26.48.46.8.27.42.47.79.6,1.08.13.3.19.61.17.94s-.17.64-.46.95c-.22.23-.49.38-.81.45s-.67.04-1.03-.08c-.36-.12-.71-.34-1.03-.64-.51-.47-.8-.99-.87-1.54-.07-.55.09-1.06.49-1.54l.61.57c-.24.29-.34.62-.3.98s.23.7.58,1.02c.31.29.62.45.95.48.33.03.59-.06.79-.27.17-.18.26-.39.26-.61,0-.23-.05-.45-.16-.67-.11-.22-.26-.51-.47-.86-.25-.41-.44-.76-.56-1.03-.12-.27-.18-.57-.16-.87.01-.3.15-.6.4-.88.24-.26.52-.42.85-.49s.67-.05,1.02.07.7.33,1.02.63c.54.51.87,1.05.98,1.62Z"/>
            <path class="cls-1" d="M38.15,137.34c-.1-.43-.07-.87.11-1.32.17-.45.49-.87.95-1.27l2.87-2.5.54.62-2.8,2.43c-.53.46-.82.95-.87,1.46s.13,1,.53,1.46c.41.47.89.72,1.43.74s1.11-.22,1.69-.72l2.68-2.32.55.63-6.64,5.77-.55-.63,2.58-2.24c-.43.1-.86.07-1.28-.09-.42-.16-.8-.43-1.13-.81-.32-.37-.53-.77-.63-1.2Z"/>
            <path class="cls-1" d="M39.35,128.65c-.03.16-.12.29-.27.39s-.3.13-.46.1c-.16-.03-.29-.12-.39-.26-.09-.14-.12-.28-.09-.45.03-.16.12-.29.26-.39s.3-.13.46-.1c.16.03.29.11.38.25.1.15.13.3.09.46Z"/>
            <path class="cls-1" d="M27.34,123.17c0-.74.2-1.4.61-1.99.4-.59.99-1.08,1.76-1.47.77-.38,1.5-.56,2.22-.53.71.03,1.36.27,1.95.71.59.44,1.09,1.07,1.5,1.89l1.1,2.2-7.42,3.73-1.11-2.2c-.41-.82-.62-1.6-.62-2.34ZM32.76,120.13c-.81-.27-1.7-.16-2.68.33-.98.49-1.6,1.14-1.88,1.96-.28.82-.15,1.74.36,2.78l.73,1.45,6.19-3.11-.73-1.45c-.52-1.03-1.19-1.69-2-1.96Z"/>
            <path class="cls-1" d="M28.2,112.14l1.83,5.06c.46-.19.81-.44,1.06-.76.25-.32.41-.67.46-1.06.05-.39,0-.77-.14-1.16-.18-.51-.46-.89-.83-1.14-.37-.26-.79-.37-1.24-.33l-.3-.82c.65-.07,1.25.08,1.81.43.55.35.96.9,1.23,1.63.21.57.26,1.13.17,1.68-.09.55-.33,1.04-.71,1.46-.38.43-.89.76-1.52.99-.63.23-1.23.3-1.8.22-.57-.08-1.06-.31-1.48-.67s-.73-.84-.94-1.42-.27-1.14-.17-1.66c.09-.53.31-.99.66-1.37.34-.39.78-.68,1.3-.87.27-.1.48-.16.62-.2ZM26.78,113.84c-.25.31-.4.65-.45,1.04s0,.78.14,1.16c.21.58.58,1.01,1.1,1.29.52.27,1.13.31,1.82.11l-1.55-4.29c-.46.16-.81.39-1.06.69Z"/>
            <path class="cls-1" d="M21.91,111.29l8.48-2.35.22.8-8.48,2.34-.22-.8Z"/>
            <path class="cls-1" d="M22.26,108.99c-.09.14-.22.23-.39.27-.17.04-.33.02-.46-.07-.14-.09-.23-.22-.26-.38-.04-.16-.01-.32.07-.46.09-.14.21-.23.38-.27s.32-.01.47.07c.14.09.23.22.27.38.04.16.01.31-.08.46ZM23.43,107.85l6.32-1.47.19.81-6.32,1.47-.19-.81Z"/>
            <path class="cls-1" d="M23.23,103.1l.27,1.49,5.7-1.02.15.82-5.7,1.02.16.89-.69.12-.16-.89-.44.08c-.69.12-1.24.04-1.63-.26-.39-.3-.66-.84-.8-1.64l.7-.13c.1.53.26.89.51,1.06s.6.22,1.08.14l.44-.08-.27-1.49.69-.12Z"/>
            <path class="cls-1" d="M22.34,99.99c-.26-.35-.43-.79-.49-1.34l.86-.1.03.23c.07.6.29,1.06.65,1.38.36.33.92.44,1.68.36l3.6-.42.1.83-6.45.75-.1-.83,1.14-.13c-.42-.14-.77-.38-1.03-.72Z"/>
            <path class="cls-1" d="M25.21,91.07l.15,5.38c.49-.04.91-.17,1.25-.39s.6-.51.77-.87c.17-.35.25-.74.24-1.15-.01-.54-.16-.99-.43-1.35-.27-.36-.63-.6-1.08-.7l-.02-.88c.64.14,1.16.47,1.58.97s.63,1.15.65,1.94c.02.61-.1,1.16-.36,1.65s-.64.88-1.13,1.17-1.08.44-1.75.46c-.67.02-1.27-.1-1.78-.36-.51-.26-.91-.62-1.2-1.1-.28-.47-.43-1.02-.45-1.64-.02-.62.1-1.16.36-1.63.26-.47.61-.84,1.06-1.1.45-.26.95-.4,1.5-.42.29,0,.5,0,.65,0ZM23.33,92.23c-.34.21-.59.49-.75.85s-.24.74-.23,1.15c.02.62.23,1.14.64,1.56s.97.65,1.69.68l-.12-4.57c-.48,0-.89.11-1.23.33Z"/>
            <path class="cls-1" d="M27.83,89.17c-.38.45-.87.67-1.46.69l.06-.85c.37-.01.67-.16.92-.45.25-.29.39-.69.43-1.2.03-.45-.05-.81-.24-1.09-.19-.28-.45-.42-.76-.45-.22-.02-.41.04-.56.17-.15.13-.28.3-.38.51-.1.21-.21.5-.33.86-.16.47-.32.85-.47,1.15-.15.29-.36.53-.62.72-.26.19-.61.27-1.02.24-.32-.02-.6-.14-.86-.35s-.45-.49-.58-.85-.18-.76-.15-1.2c.05-.7.27-1.25.65-1.64.38-.4.88-.6,1.5-.58l-.06.83c-.38,0-.7.12-.95.38-.25.26-.4.62-.43,1.1-.03.42.04.76.22,1.04.18.28.41.42.71.45.25.02.47-.04.64-.18.17-.14.31-.32.42-.55s.23-.53.37-.9c.16-.46.31-.82.45-1.09s.33-.49.57-.67c.24-.18.56-.26.94-.24.35.03.65.14.91.35.26.21.45.49.59.84.13.35.18.75.15,1.19-.06.74-.27,1.34-.65,1.78Z"/>
            <path class="cls-1" d="M23.25,78.39c.27-.35.63-.6,1.09-.76s.98-.18,1.59-.08l3.75.63-.14.81-3.66-.62c-.69-.12-1.26-.03-1.68.25-.42.28-.69.73-.79,1.33-.1.62,0,1.14.34,1.58.33.43.87.71,1.63.84l3.49.59-.14.82-8.67-1.47.14-.82,3.36.57c-.35-.27-.6-.62-.74-1.05-.15-.43-.18-.89-.09-1.38.08-.48.26-.9.53-1.26Z"/>
            <path class="cls-1" d="M30.81,73.71c-.15.07-.3.09-.47.03-.17-.05-.29-.15-.36-.29-.08-.14-.09-.3-.04-.46.05-.16.15-.28.29-.35s.3-.09.47-.04c.17.05.29.15.37.3s.1.3.05.46c-.05.17-.15.29-.3.36Z"/>
            <path class="cls-1" d="M27.51,60.97c.57-.46,1.22-.72,1.93-.78.71-.06,1.46.09,2.25.45.78.36,1.38.82,1.8,1.39.42.57.65,1.23.68,1.96.03.74-.15,1.52-.53,2.36l-1.02,2.24-7.57-3.44,1.02-2.24c.38-.84.86-1.49,1.43-1.95ZM33.28,63.28c-.3-.8-.95-1.43-1.94-1.88-1-.45-1.9-.53-2.71-.23-.81.3-1.45.97-1.93,2.03l-.67,1.48,6.31,2.87.67-1.48c.48-1.05.57-1.98.27-2.78Z"/>
            <path class="cls-1" d="M36.68,54.66l-2.8,4.6c.43.24.85.35,1.26.35s.78-.1,1.11-.31.61-.48.82-.84c.28-.46.4-.91.37-1.37-.03-.45-.21-.84-.52-1.17l.46-.75c.46.47.72,1.02.8,1.67s-.1,1.31-.5,1.98c-.32.52-.72.92-1.2,1.19-.49.27-1.01.39-1.59.36-.57-.03-1.15-.22-1.72-.57-.57-.35-1.01-.77-1.3-1.27-.29-.49-.43-1.01-.41-1.57.02-.55.19-1.09.51-1.62s.72-.92,1.19-1.17c.47-.26.97-.37,1.49-.35s1.02.18,1.49.47c.24.15.43.27.55.36ZM34.47,54.62c-.4,0-.76.09-1.09.3-.33.21-.6.49-.82.84-.32.53-.43,1.08-.31,1.66.11.58.46,1.08,1.06,1.49l2.38-3.9c-.41-.26-.81-.39-1.21-.39Z"/>
            <path class="cls-1" d="M33.37,49.28l7.14,5.14-.49.68-7.14-5.14.49-.68Z"/>
            <path class="cls-1" d="M35.37,48.12c-.17.02-.32-.02-.46-.13-.14-.11-.21-.24-.23-.41-.02-.16.03-.31.13-.44s.24-.21.4-.23c.16-.02.32.02.45.13.14.11.22.24.24.41s-.02.32-.12.45c-.1.13-.24.21-.4.23ZM37,48.32l5.11,4-.51.65-5.11-4,.51-.65Z"/>
            <path class="cls-1" d="M40.54,45.2l-.99,1.14,4.37,3.79-.55.63-4.37-3.79-.59.68-.53-.46.59-.68-.34-.3c-.53-.46-.81-.94-.82-1.43-.02-.49.24-1.04.77-1.65l.54.47c-.35.41-.52.76-.51,1.06s.2.61.57.93l.34.3.99-1.14.53.46Z"/>
            <path class="cls-1" d="M42.43,42.54c.11-.42.35-.83.73-1.22l.62.61-.16.16c-.42.43-.64.89-.67,1.38s.24,1,.78,1.53l2.59,2.54-.58.59-4.63-4.55.58-.59.82.81c-.16-.42-.19-.83-.08-1.26Z"/>
            <path class="cls-1" d="M51.21,39.15l-4.1,3.49c.34.36.7.6,1.09.73.39.13.77.14,1.16.05.38-.09.73-.27,1.04-.54.41-.35.67-.74.78-1.18.11-.44.07-.87-.13-1.28l.67-.57c.29.59.37,1.2.23,1.84-.14.64-.5,1.22-1.1,1.73-.46.4-.97.65-1.51.75s-1.08.06-1.62-.15c-.53-.2-1.02-.56-1.46-1.08-.44-.52-.72-1.05-.84-1.61-.12-.56-.09-1.1.1-1.62.19-.52.52-.98,1-1.38s.97-.65,1.5-.75c.53-.1,1.03-.05,1.52.13.49.19.91.49,1.27.91.18.22.32.39.41.51ZM49.12,38.41c-.37-.13-.75-.15-1.13-.05-.38.1-.72.28-1.04.54-.47.4-.74.89-.82,1.48-.08.59.1,1.17.54,1.75l3.47-2.96c-.31-.37-.65-.63-1.03-.75Z"/>
            <path class="cls-1" d="M54.32,40c-.58-.02-1.07-.25-1.45-.71l.7-.49c.24.28.55.42.93.43.38.01.78-.13,1.2-.42.37-.26.6-.55.69-.87s.05-.61-.13-.87c-.13-.18-.29-.29-.49-.33s-.41-.03-.64.03c-.23.06-.52.15-.88.28-.47.17-.86.29-1.18.36-.32.06-.64.06-.95-.03-.31-.08-.59-.3-.83-.65-.18-.26-.27-.56-.26-.89,0-.33.1-.66.3-.99.2-.33.48-.62.84-.87.58-.4,1.14-.57,1.69-.53.55.05,1.02.32,1.4.81l-.68.47c-.23-.3-.53-.47-.89-.5-.36-.04-.73.08-1.12.35-.35.24-.57.51-.67.83s-.07.59.1.83c.14.21.32.34.54.38.22.05.45.04.69-.02.24-.05.55-.15.94-.28.46-.16.83-.27,1.13-.33.3-.06.59-.05.88.02.29.08.55.27.77.58.2.29.3.6.3.93,0,.33-.1.66-.29.99-.19.33-.47.61-.83.86-.61.43-1.21.63-1.8.61Z"/>
            <path class="cls-1" d="M59.87,29.66c.44-.01.87.12,1.27.38s.75.66,1.04,1.2l1.84,3.33-.72.4-1.79-3.25c-.34-.62-.75-1.01-1.24-1.16-.49-.16-1-.09-1.54.21-.55.3-.89.72-1.02,1.24-.14.53-.02,1.13.35,1.8l1.71,3.1-.73.4-4.24-7.71.73-.4,1.64,2.99c0-.44.11-.85.36-1.23.25-.38.59-.69,1.03-.93.43-.24.87-.36,1.31-.37Z"/>
            <path class="cls-1" d="M68.14,32.65c-.15-.07-.26-.18-.32-.34-.06-.16-.07-.32,0-.47.06-.15.18-.25.34-.32.15-.06.31-.06.46,0,.15.06.26.18.32.34.07.16.07.32,0,.47-.06.15-.17.26-.32.32-.16.07-.32.07-.47,0Z"/>
            <path class="cls-1" d="M76.09,22.05c.72.16,1.33.5,1.82,1.02s.85,1.2,1.06,2.03c.21.83.23,1.59.05,2.28-.18.69-.55,1.28-1.11,1.76-.55.48-1.28.84-2.17,1.07l-2.38.61-2.07-8.05,2.38-.61c.89-.23,1.7-.26,2.41-.1ZM77.91,27.99c.44-.74.52-1.63.25-2.68-.27-1.06-.78-1.81-1.52-2.26-.74-.44-1.67-.52-2.79-.23l-1.58.4,1.72,6.71,1.58-.41c1.12-.29,1.9-.8,2.34-1.54Z"/>
            <path class="cls-1" d="M86.7,25.24l-5.34.71c.09.49.26.88.52,1.2.26.32.57.54.94.67.37.13.76.17,1.17.11.53-.07.97-.26,1.3-.57.33-.31.53-.69.59-1.14l.87-.12c-.07.65-.34,1.21-.8,1.67-.46.47-1.08.75-1.86.85-.61.08-1.16.02-1.68-.19s-.94-.54-1.28-1c-.34-.47-.55-1.03-.64-1.7-.09-.67-.03-1.27.17-1.81s.52-.97.97-1.3c.44-.33.97-.54,1.59-.62.61-.08,1.17-.02,1.66.19.49.21.9.52,1.2.94.31.42.5.9.57,1.45.04.28.06.5.06.65ZM85.35,23.49c-.25-.31-.55-.53-.92-.66-.37-.13-.76-.16-1.17-.11-.61.08-1.11.35-1.49.8-.38.45-.55,1.04-.5,1.76l4.53-.6c-.06-.48-.21-.88-.45-1.19Z"/>
            <path class="cls-1" d="M88.77,19.29l.49,8.78-.83.05-.49-8.78.83-.05Z"/>
            <path class="cls-1" d="M91.01,20.11c-.12-.12-.18-.26-.18-.44,0-.17.06-.32.17-.43.12-.12.26-.18.43-.18s.31.05.43.17c.12.11.18.26.18.43,0,.17-.06.32-.17.44-.12.12-.26.18-.43.19-.17,0-.31-.06-.43-.17ZM91.87,21.5l.09,6.49h-.83s-.09-6.48-.09-6.48h.83Z"/>
            <path class="cls-1" d="M96.54,22.31l-1.51-.05-.21,5.79-.83-.03.21-5.79-.9-.03.02-.7.9.03.02-.45c.03-.7.22-1.22.6-1.54.37-.32.96-.47,1.77-.43l-.03.71c-.54-.02-.92.07-1.15.27s-.35.54-.36,1.02l-.02.45,1.51.05-.03.7Z"/>
            <path class="cls-1" d="M99.78,22.11c.4-.18.87-.25,1.41-.2l-.09.86-.22-.02c-.6-.06-1.1.05-1.49.34s-.63.81-.7,1.57l-.36,3.61-.83-.08.64-6.46.83.08-.11,1.15c.22-.39.53-.67.93-.85Z"/>
            <path class="cls-1" d="M107.93,26.86l-5.28-1.07c-.07.49-.04.92.1,1.31s.36.7.67.94c.31.25.66.41,1.06.49.53.11,1,.07,1.41-.11.41-.18.72-.48.93-.89l.86.18c-.28.59-.72,1.03-1.3,1.32-.59.29-1.27.36-2.04.2-.6-.12-1.11-.37-1.53-.73-.42-.37-.71-.82-.88-1.37-.17-.55-.19-1.15-.05-1.81s.38-1.21.75-1.65c.37-.45.81-.75,1.34-.92.53-.17,1.09-.19,1.7-.07s1.11.36,1.51.72.68.78.83,1.28c.15.5.18,1.02.07,1.56-.06.28-.11.49-.15.64ZM107.22,24.76c-.13-.38-.35-.68-.66-.92-.31-.24-.66-.4-1.07-.48-.61-.12-1.16-.03-1.67.27s-.85.8-1.04,1.5l4.47.91c.1-.47.09-.9-.04-1.27Z"/>
            <path class="cls-1" d="M109.22,29.77c-.36-.47-.48-.99-.36-1.58l.82.24c-.07.36.02.69.25,1s.59.53,1.08.67c.43.13.8.12,1.11,0,.31-.13.51-.35.6-.66.06-.21.05-.41-.05-.58-.1-.18-.24-.34-.42-.48-.19-.14-.44-.31-.77-.5-.43-.26-.77-.49-1.02-.7-.25-.21-.45-.46-.58-.76-.13-.3-.14-.65-.02-1.05.09-.31.26-.56.52-.76s.58-.33.96-.39c.38-.05.78-.02,1.21.11.67.2,1.16.52,1.47.98.31.46.39.99.25,1.59l-.8-.23c.08-.37.03-.71-.17-1.01s-.52-.52-.98-.65c-.4-.12-.76-.12-1.07,0-.31.12-.5.32-.58.6-.07.24-.06.47.05.66.1.2.25.38.44.53.19.15.46.34.8.55.41.25.73.48.97.67.23.19.41.43.54.7.12.28.14.6.04.97-.1.33-.28.61-.54.81-.26.21-.58.34-.95.4-.37.06-.77.02-1.19-.11-.72-.21-1.25-.55-1.6-1.01Z"/>
            <path class="cls-1" d="M120.75,27.59c.28.34.45.75.5,1.23s-.04,1-.27,1.56l-1.44,3.52-.76-.31,1.41-3.43c.27-.65.31-1.22.12-1.7s-.56-.83-1.13-1.06c-.58-.24-1.12-.24-1.61-.02-.5.23-.89.7-1.18,1.41l-1.34,3.28-.77-.32,3.34-8.14.77.32-1.29,3.16c.34-.28.73-.44,1.18-.49.45-.04.91.03,1.37.22.45.19.82.45,1.11.79Z"/>
            <path class="cls-1" d="M123.62,35.91c-.04-.16-.02-.32.07-.47.09-.15.21-.25.36-.29s.31-.02.46.06c.14.08.24.2.28.36.04.16.02.31-.06.46-.09.15-.21.25-.37.3s-.31.03-.45-.05c-.15-.09-.25-.21-.29-.37Z"/>
          </g>
          <g>
            <g>
              <path class="cls-1" d="M139.59,79.76c-2.55-1.45-4.88-2.37-6.98-2.76-4.78-.89-8.03.84-9.76,5.19l-1.97,4.93,12.28,2.28-3.44,8.4-12.28-2.28-12.05,29.77-10-1.86,12.05-29.77-24-4.46,3.44-8.4,24,4.46,2.6-6.52c1.01-2.53,2.27-4.61,3.77-6.26,1.5-1.65,3.16-2.93,4.99-3.84,1.82-.91,3.78-1.47,5.85-1.68,2.07-.21,4.19-.12,6.34.28,1.52.28,3.02.7,4.49,1.24,1.47.55,2.95,1.2,4.44,1.97l-3.6,9.27-.17.05Z"/>
              <path class="cls-1" d="M52.49,57.24c-.24-.92.35-1.85,1.28-2,2.87-.47,5.82-.87,8.85-1.19,9.2-.98,17.42-.8,24.67.55,7.92,1.47,13.68,4.32,17.3,8.55,3.61,4.23,4.84,9.47,3.67,15.72-.59,3.17-1.69,6.27-3.31,9.31-1.62,3.04-3.65,6.21-6.07,9.51-4.69,6.2-9.59,11.34-14.7,15.41-5.11,4.07-10.8,6.62-17.08,7.66-2.37.42-4.71.42-7.05-.02-3.34-.62-5.86-2.09-7.59-4.42-1.72-2.33-2.25-5.28-1.59-8.87.4-2.13,1.21-4.44,2.46-6.95,1.24-2.51,2.8-5.28,4.68-8.31,1.88-3.03,4.74-7.47,8.59-13.31,2.88-4.38,5.14-7.84,6.78-10.38.3-.46.72-.64,1.27-.54.08.02.2.06.36.13.03.05.07.08.11.08,1.69,1.14,2.86,1.91,3.51,2.34.81.54,1.8,1.22,2.98,2.04.46.3.65.7.55,1.2-.03.17-.1.32-.22.48-.64.91-1.64,2.33-2.99,4.23-5.74,8.16-10.16,14.67-13.27,19.52-3.1,4.86-4.89,8.54-5.35,11.04-.14.75-.16,1.31-.05,1.67.3.23.73.39,1.27.49,1.42.26,3.32.06,5.71-.62,2.39-.68,4.98-1.89,7.79-3.63,2.8-1.74,5.49-3.99,8.08-6.74,8.92-9.47,13.95-17.31,15.11-23.52.62-3.33-.06-6.01-2.03-8.04-1.97-2.03-5.42-3.5-10.34-4.41-6.09-1.13-13.47-1.27-22.14-.4-2.67.27-5.27.59-7.8.96-.81.12-1.57-.38-1.78-1.17l-1.68-6.37Z"/>
            </g>
            <path class="cls-1" d="M57.38,79.5c-.47,2.55-2.77,4.13-5.32,3.65s-4.15-2.77-3.68-5.33c.48-2.58,2.77-4.15,5.35-3.67,2.55.47,4.13,2.77,3.65,5.35ZM56.49,79.34c.39-2.08-.88-3.96-2.91-4.34s-3.91.91-4.3,3c-.39,2.08.88,3.93,2.94,4.32s3.89-.89,4.27-2.98ZM54.48,80.5l.22.04-.13.69-.32-.06c-.6-.11-1.08-.56-1.22-1.15l-.43-.98-.35-.06-.33,1.76-.82-.15.88-4.74,1.74.32c.84.16,1.37.92,1.21,1.77-.13.72-.74,1.22-1.44,1.25l.31.7c.15.31.38.56.68.61ZM52.38,78.24l.87.16c.42.08.8-.16.88-.61s-.18-.83-.6-.91l-.87-.16-.28,1.51Z"/>
          </g>
        </g>
      </g>
    </g>
  </g>
</svg>