<?xml version="1.0" encoding="UTF-8"?>
<svg id="Layer_2" data-name="Layer 2" xmlns="http://www.w3.org/2000/svg" viewBox="0 0 604.91 140.02">
  <defs>
    <style>
      .cls-1 {
        fill: #066;
      }
    </style>
  </defs>
  <g id="Layer_1-2" data-name="Layer 1">
    <g>
      <g>
        <g>
          <path class="cls-1" d="M191.06,93.89c2.57,2.07,4.27,3.48,5.1,4.23,1.08.91,2.24,1.91,3.48,2.99.58.33.87.96.87,1.87,0,.66-.21,1.2-.62,1.62-6.55,6.96-14.05,12.39-22.51,16.29-8.46,3.9-16.83,5.84-25.12,5.84-9.2,0-16.64-2.38-22.32-7.15-5.68-4.77-8.56-11.79-8.64-21.08.08-8.46,2.4-17.08,6.96-25.86,4.56-8.79,10.24-16.04,17.04-21.77,6.8-5.72,13.39-8.58,19.77-8.58,4.89,0,8.69,1.45,11.38,4.35,2.69,2.91,4.04,6.68,4.04,11.32,0,6.47-2.01,12.81-6.03,19.03-4.02,6.22-9.12,11.67-15.29,16.35-6.18,4.68-12.37,8.15-18.59,10.39,1.58,4.39,5.8,6.59,12.69,6.59,5.72,0,11.56-1.43,17.54-4.29,5.97-2.86,11.6-6.81,16.91-11.88.58-.58,1.16-.86,1.74-.86.66,0,1.2.2,1.62.62ZM151.64,70.76c-4.64,6.38-7.88,11.9-9.7,16.54,5.64-2.66,10.71-6.67,15.23-12.07,4.52-5.39,6.77-10.28,6.77-14.67v-1.24c-3.56,1.24-7.67,5.06-12.31,11.44Z"/>
          <path class="cls-1" d="M244.78,106.2c-6.47,5.56-12.91,10.22-19.34,13.99-6.42,3.77-12.66,5.65-18.72,5.65-6.38,0-11.56-2.01-15.54-6.03-3.98-4.02-5.97-9.67-5.97-16.97,0-8.71,2.98-20.97,8.95-36.81,5.97-15.83,13.84-34.65,23.63-56.46,1.57-3.65,2.77-6.38,3.61-8.2.5-.91,1.24-1.37,2.24-1.37.5,0,.83.04.99.13,2.99,1.33,5.22,2.32,6.71,2.99,1.49.66,3.69,1.66,6.59,2.99.91.49,1.37,1.24,1.37,2.23,0,.5-.08.87-.25,1.12-1,2.23-2.61,5.68-4.85,10.32-9.95,21.39-17.7,38.93-23.26,52.6-5.56,13.68-8.33,23.84-8.33,30.47,0,4.14,1.53,6.22,4.6,6.22,2.82,0,6.61-1.37,11.38-4.1,4.77-2.74,10.01-6.47,15.73-11.2.41-.33.95-.49,1.62-.49.74,0,1.37.29,1.86.86l7.21,8.71c.41.41.62.91.62,1.49,0,.91-.29,1.54-.87,1.87Z"/>
          <path class="cls-1" d="M237.56,119.5c-4.22-4.47-6.34-10.32-6.34-17.53,0-4.64.68-9.39,2.05-14.24,1.37-4.85,3.25-10.42,5.66-16.73.17-.41.29-.7.37-.86,1.82-4.56,4.73-11.2,8.71-19.9,1.32-2.74,2.28-4.77,2.86-6.1.41-.91,1.12-1.36,2.11-1.36.5,0,.87.04,1.12.12,3.89,1.91,6.51,3.15,7.84,3.73,1.57.75,3.36,1.58,5.35,2.49.91.5,1.37,1.24,1.37,2.24,0,.33-.08.67-.25,1-.58,1.24-1.62,3.36-3.11,6.34-4.89,9.86-8.81,18.4-11.75,25.62-2.95,7.21-4.41,13.3-4.41,18.28,0,1.58.17,2.91.5,3.98.83,1.33,2.16,1.99,3.98,1.99,3.32,0,7.23-1.47,11.75-4.41,4.52-2.94,9.18-6.32,13.99-10.14.08-.08.17-.17.25-.25.41-.33.95-.49,1.62-.49.75,0,1.37.29,1.86.86l7.34,8.71c.33.41.5.96.5,1.62,0,.74-.29,1.37-.87,1.87-6.71,5.8-13.08,10.49-19.09,14.05-6.01,3.57-12.04,5.35-18.09,5.35s-11.07-2.07-15.3-6.22ZM253.48,22.14c8.12-2.32,14.8-6.1,20.02-11.32.5-.49,1.07-.74,1.74-.74s1.25.25,1.74.74l10.2,10.2c.41.34.62.87.62,1.62s-.25,1.37-.75,1.87c-3.48,2.99-8.21,5.93-14.17,8.83-5.97,2.9-11.48,4.56-16.54,4.97-1.24,0-2.22-1.01-2.92-3.05-.71-2.03-1.31-5.61-1.8-10.75,0-1.16.62-1.95,1.86-2.36Z"/>
          <path class="cls-1" d="M9.46,20.65c-.79-1.67,0-3.68,1.75-4.31,5.34-1.93,10.87-3.75,16.58-5.46,17.33-5.18,33.2-7.77,47.63-7.77,15.75,0,27.85,3.42,36.31,10.25,8.46,6.84,12.69,16.48,12.69,28.92,0,6.3-1.01,12.66-3.04,19.08-2.03,6.43-4.79,13.25-8.27,20.46-6.8,13.6-14.38,25.22-22.76,34.88-8.38,9.66-18.41,16.6-30.09,20.83-4.4,1.66-8.91,2.49-13.56,2.49-6.63,0-12.02-1.92-16.17-5.78-4.15-3.86-6.22-9.34-6.22-16.48,0-4.23.74-8.97,2.24-14.24,1.49-5.26,3.5-11.15,6.03-17.66,2.53-6.5,6.45-16.06,11.75-28.66,3.98-9.45,7.09-16.91,9.32-22.39.41-.99,1.16-1.49,2.24-1.49.17,0,.41.04.74.13.08.08.17.12.25.12,3.65,1.58,6.17,2.66,7.59,3.24,1.74.74,3.89,1.7,6.47,2.86.99.41,1.49,1.12,1.49,2.11,0,.33-.08.66-.25,1-.91,1.99-2.32,5.06-4.23,9.2-8.12,17.74-14.3,31.83-18.53,42.28-4.23,10.44-6.34,18.16-6.34,23.13,0,1.5.17,2.57.5,3.24.66.33,1.53.49,2.61.49,2.82,0,6.4-1.07,10.76-3.23,4.35-2.16,8.91-5.41,13.68-9.76,4.77-4.35,9.14-9.64,13.12-15.85,13.76-21.39,20.64-38.26,20.64-50.61,0-6.63-2.26-11.54-6.78-14.74-4.52-3.19-11.67-4.78-21.45-4.78-12.11,0-26.34,2.38-42.72,7.15-5.05,1.47-9.93,3.01-14.65,4.64-1.51.52-3.16-.17-3.84-1.62l-5.5-11.66Z"/>
        </g>
        <g>
          <path class="cls-1" d="M341.82,25.35c-5.43-1.88-10.23-2.82-14.41-2.82-9.5,0-15.14,4.49-16.91,13.47l-2.04,10.18h24.43l-3.6,17.38h-24.43l-12.53,61.54h-19.88l12.53-61.54h-13.94l3.6-17.38h13.94l2.66-13.47c1.04-5.22,2.71-9.68,5.01-13.39,2.3-3.7,5.04-6.76,8.22-9.16,3.18-2.4,6.73-4.18,10.65-5.33,3.91-1.15,8.01-1.72,12.29-1.72,3.03,0,6.05.26,9.08.78,3.03.52,6.11,1.26,9.24,2.19l-3.6,19.1-.31.16Z"/>
          <g>
            <path class="cls-1" d="M379.36,64.34h-.16c-1.46-.31-2.92-.57-4.38-.78-1.46-.21-2.87-.31-4.23-.31-6.89,0-12.66,2.19-17.3,6.58-4.65,4.38-7.86,10.96-9.63,19.73l-7.2,35.54h-19.89l16.32-78.92h0l15.62,13.62c3.65-5.22,8.01-9.19,13.07-11.9,5.06-2.71,10.52-3.91,16.36-3.6l1.41,20.04Z"/>
            <path class="cls-1" d="M445.05,93.46h-54.18c.63,5.22,3,9.19,7.12,11.9,4.12,2.72,9.16,4.07,15.11,4.07,4.38,0,8.95-.71,13.7-2.11,4.75-1.41,9.52-3.63,14.33-6.65h.16l-6.42,20.36c-4.7,2.19-9.5,3.84-14.41,4.93-4.91,1.1-9.71,1.64-14.41,1.64-5.64,0-10.94-.81-15.89-2.42-4.96-1.62-9.16-4.15-12.6-7.59-3.45-3.44-5.87-7.78-7.28-13-1.41-5.22-1.39-11.43.08-18.64,1.25-5.95,3.23-11.45,5.95-16.52,2.71-5.06,6.05-9.47,10.02-13.23,3.97-3.76,8.56-6.68,13.78-8.77,5.22-2.09,10.96-3.13,17.22-3.13s11.53.97,15.81,2.9c4.28,1.93,7.65,4.67,10.1,8.22,2.45,3.55,3.99,7.75,4.62,12.61.63,4.86.31,10.26-.94,16.21l-1.88,9.24ZM426.89,76.71c.1-4.7-.99-8.22-3.29-10.57-2.3-2.35-5.64-3.52-10.02-3.52s-8.06,1.23-11.35,3.68c-3.29,2.45-5.98,5.93-8.06,10.41h32.73Z"/>
            <path class="cls-1" d="M478.09,68.25c-.42,2.19.26,3.84,2.04,4.93,1.77,1.1,4.07,2.06,6.89,2.9,2.82.84,5.9,1.72,9.24,2.66,3.34.94,6.31,2.35,8.92,4.23,2.61,1.88,4.59,4.44,5.95,7.67,1.36,3.23,1.46,7.57.31,13-.84,4.18-2.35,7.78-4.54,10.8-2.19,3.03-4.88,5.51-8.06,7.44-3.19,1.93-6.71,3.37-10.57,4.31-3.86.94-7.83,1.41-11.9,1.41-4.91,0-9.79-.6-14.64-1.8-4.85-1.2-9.37-3-13.54-5.4l1.56-19.57.47-.16c4.59,3.86,9.11,6.57,13.54,8.14,4.44,1.57,8.48,2.35,12.13,2.35,3.97,0,7.28-.76,9.94-2.27,2.66-1.51,4.25-3.42,4.78-5.72.41-2.09.18-3.73-.71-4.93-.89-1.2-2.22-2.17-3.99-2.9-1.78-.73-3.81-1.35-6.11-1.88-2.3-.52-4.65-1.12-7.05-1.8-2.4-.68-4.72-1.51-6.97-2.5-2.24-.99-4.12-2.37-5.64-4.15-1.51-1.78-2.58-3.99-3.21-6.66-.63-2.66-.52-6.03.31-10.1.83-3.97,2.32-7.46,4.46-10.49,2.14-3.03,4.78-5.53,7.91-7.51,3.13-1.98,6.6-3.47,10.41-4.46,3.81-.99,7.75-1.49,11.82-1.49,4.38,0,8.82.55,13.31,1.65,4.49,1.1,8.82,2.79,13,5.09l-1.57,19.57-.16.16c-4.7-3.97-9.21-6.78-13.55-8.46-4.33-1.67-8.22-2.5-11.66-2.5s-6.5.78-8.85,2.35c-2.35,1.57-3.78,3.6-4.31,6.11Z"/>
            <path class="cls-1" d="M603.99,79.52l-9.24,45.57h-19.88l8.46-41.81c.73-3.65.83-6.81.31-9.48-.52-2.66-1.46-4.85-2.82-6.57-1.36-1.72-3.05-3.03-5.09-3.91-2.04-.89-4.2-1.33-6.5-1.33s-4.62.42-6.97,1.25c-2.35.84-4.54,2.09-6.58,3.76-2.04,1.67-3.84,3.78-5.4,6.34-1.56,2.56-2.72,5.51-3.44,8.85l-8.77,42.9h-19.89l24.43-120.41h20.04l-10.18,49.95c3.86-3.44,8.09-6.05,12.68-7.83,4.59-1.78,9.13-2.66,13.62-2.66,3.97,0,7.72.73,11.28,2.19,3.55,1.46,6.55,3.65,9,6.58,2.45,2.92,4.17,6.6,5.17,11.04.99,4.44.91,9.63-.24,15.58Z"/>
          </g>
        </g>
      </g>
      <path class="cls-1" d="M20.91,69.82c0,5.93-4.49,10.43-10.43,10.43S0,75.75,0,69.82s4.49-10.48,10.48-10.48,10.43,4.49,10.43,10.48ZM18.84,69.82c0-4.84-3.63-8.53-8.35-8.53s-8.41,3.69-8.41,8.53,3.63,8.47,8.41,8.47,8.35-3.63,8.35-8.47ZM14.8,73.27h.52v1.61h-.75c-1.38,0-2.65-.81-3.23-2.07l-1.38-2.02h-.81v4.09h-1.9v-11h4.03c1.96,0,3.46,1.5,3.46,3.45,0,1.67-1.15,3.05-2.71,3.4l.98,1.44c.46.63,1.09,1.09,1.79,1.09ZM9.16,69.07h2.02c.98,0,1.73-.69,1.73-1.73s-.75-1.79-1.73-1.79h-2.02v3.51Z"/>
    </g>
  </g>
</svg>