<?xml version="1.0" encoding="UTF-8"?>
<svg id="Layer_2" data-name="Layer 2" xmlns="http://www.w3.org/2000/svg" viewBox="0 0 368.89 73.37">
  <defs>
    <style>
      .cls-1 {
        fill: #066;
        font-family: Poppins-Bold, Poppins;
        font-size: 23.75px;
        font-weight: 700;
      }

      .cls-2 {
        fill: #79aad7;
      }
    </style>
  </defs>
  <g id="Layer_1-2" data-name="Layer 1">
    <g>
      <g id="qTin4f">
        <path class="cls-2" d="M332.22,73.37c2.81.02,5.62-.83,7.81-2.57,2-1.59,3.03-4.15,6.03-4.15,2.27,0,3.58.46,5.98-.21,5.03-1.4,8.83-5.82,9.26-11.07.2-2.44-.77-4.31.95-6.46.77-.97,2.31-1.75,3.2-2.66,4.4-4.5,4.54-12.01.68-16.89-1.17-1.47-3.27-2.43-3.8-4.3-.56-2.01.33-4.66-.07-7-.95-5.64-5.84-10.09-11.55-10.5-2.76-.2-4.75.99-7.15-1.12-.96-.84-1.85-2.45-2.84-3.36-1.98-1.8-4.81-2.87-7.46-3.05C332.93.01,332.6,0,332.28,0h-153.56s-142.1,0-142.1,0c-.32,0-.65.01-.98.03-2.65.19-5.48,1.25-7.46,3.05-1,.91-1.88,2.52-2.84,3.36-2.4,2.11-4.39.92-7.15,1.12-5.71.41-10.6,4.86-11.55,10.5-.4,2.34.49,4.99-.07,7-.52,1.87-2.63,2.83-3.8,4.3-3.86,4.87-3.72,12.38.68,16.89.89.91,2.43,1.69,3.2,2.66,1.72,2.15.74,4.02.95,6.46.43,5.25,4.24,9.67,9.26,11.07,2.4.67,3.71.21,5.98.21,3,0,4.03,2.56,6.03,4.15,2.18,1.74,5,2.59,7.81,2.57h295.54Z"/>
      </g>
      <text class="cls-1" transform="translate(30.56 43.61)"><tspan x="0" y="0">DISCOVER B2B SOLUTIONS</tspan></text>
    </g>
  </g>
</svg>