<?xml version="1.0" encoding="UTF-8"?>
<svg id="Layer_2" data-name="Layer 2" xmlns="http://www.w3.org/2000/svg" xmlns:xlink="http://www.w3.org/1999/xlink" viewBox="0 0 1919.87 2503">
  <defs>
    <style>
      .cls-1 {
        fill: none;
      }

      .cls-2 {
        fill: #79aad7;
      }

      .cls-3 {
        clip-path: url(#clippath);
      }

      .cls-4 {
        fill: #066;
      }
    </style>
    <clipPath id="clippath">
      <rect class="cls-1" x="0" width="1919.87" height="2503"/>
    </clipPath>
  </defs>
  <g id="Layer_1-2" data-name="Layer 1">
    <g class="cls-3">
      <g>
        <path class="cls-2" d="M41.3,2460.03c.07,2.99,1.06,6.25,1.03,6.68-.03.45-2.7,8.2-3.06,8.47-4.2,3.25-10.47-6.66-15.52-7.63-.44-.4-.82-.87-1.25-1.25.32-2.72-3.12-4.09-3.56-5.89-.98-3.97,5.8-11.82,8.53-14.82,3-3.31,6.52-5.95,9.86-8.86-1.46-16.16-8.08-36.2-6.05-51.93,1.75-1.02,4.86-3.24,6.27-3.76-3.31,4.27-5.28,4.63-5.11,10.66.59,21.87,8.32,45.31,8.88,68.33Z"/>
        <path class="cls-2" d="M136.59,2053.79c-20.26,23.45-33.86,55.47-45.6,84.17-4.12,10.06-8,20.81-10.83,31.18-1.81.18-2.04-2.96-2.51-4.36-7.97-23.44-12.87-57-42.3-63.02-16.96-3.47-26.55.49-41.69,7.21v-137.92c19.54-5.08,32.37-21.8,46.39-35.11,45.59,34.12,74.06,63.32,96.55,117.86Z"/>
        <path class="cls-2" d="M-6.34,2372.26v-223.18c10.79-4.17,15.09-22.47,27.63-10.7,21.97,20.63,21.57,67.85,31.36,95.36-18.87,46.51-36.4,93.72-58.99,138.53Z"/>
        <path class="cls-4" d="M-20.49,1862.19c6.48-1.34,12.02-5.32,17.97-7.88,1.59-.68,7.58-1.3,9.36-2.38.41-.25,3.27-6.53,4.76-8.44,17.52-22.49,37.1-31.1,65.43-23.03,10.37,2.95,19.05,9.05,27.92,14.8.32,1.85-.25,2.46-1.35,3.69-2.94,3.31-13.62,10.5-17.87,13.48-28.26,19.75-44.39,25.07-77.09,10.11-2.19-1-1.05-4.8-6.53-2.2-2.18,1.03-6.27,3.96-7.87,4.71-4.59,2.14-9.93,4.27-14.73,5.91v-8.78Z"/>
        <path class="cls-4" d="M60.11,2426.18c.58,3.62.69,7.76,1.25,11.28,2.8,17.52,7.21,35.04,8.78,52.66h-21.32c-1.13-8.72-3.18-17.31-4.84-25.95-.45-2.32,1.07-4.88-2.69-4.14-.56-23.02-8.29-46.46-8.88-68.33-.16-6.04,1.81-6.39,5.11-10.66,3.73-1.38,12.46-2.94,14.96.71,2.84,4.14,6.37,36.75,7.61,44.42Z"/>
        <path class="cls-4" d="M162.6,2480.23c3.56-4.33,4.93-9.48,7.69-14.22,9.7-16.6,19.15-33.02,28.31-49.4.57-1.01,5.28-5.85,5.36-6.26.86-4.2-3.16-13.54-3.59-18.67-1.15-13.91,6.7-33.68,22.96-31.83,20,2.28,29.23,29.47,14.42,43.19-2.53,2.34-12.73,7.23-15.95,7.87-2.96.59-11.93-.13-12.67.57-.63.6-3.94,9.37-4.79,10.76s-2.35,1.65-2.85,2.49c-13.12,21.79-23.72,45.3-38.9,65.53v-10.03Z"/>
        <path class="cls-2" d="M1550.39,2506.92h-53.84c7.78-12.58,20.52-17.69,35.17-15.77,6.75.88,17.08,8.8,18.67,15.77Z"/>
        <path class="cls-2" d="M31.27,2384.8c-2.03,15.73,4.59,35.77,6.05,51.93-3.35,2.91-6.86,5.55-9.86,8.86-2.72,3.01-9.5,10.85-8.53,14.82.44,1.8,3.88,3.17,3.56,5.89-2.95-2.61-20.41-16.44-23.13-17.68-2.33-1.07-3.41-1.64-5.71.13v-8.78c5.38-.86,7.37-5.24,10.31-9.13,9.57-12.66,14.89-26.63,22.79-39.89,2.33-3.91-.83-3.04,4.52-6.14Z"/>
        <path class="cls-2" d="M31.27,2384.8c1.49-11.55,13.64-30.26,19.04-41.77,4.98-10.64,8.83-22.13,13.61-32.78.68-1.51.67-3.42,3.07-3.2,4.77,18.73,10.94,37.4,19.02,54.98,3.33,7.25,7.23,15.89,12.97,21.51-9.38,13.17-21.98,28.62-33.83,39.52-1.55,1.42-2.58,3.14-5.03,3.11-1.24-7.67-4.77-40.28-7.61-44.42-2.5-3.65-11.23-2.09-14.96-.71-1.41.52-4.52,2.75-6.27,3.76Z"/>
        <path class="cls-2" d="M96.47,2441.22l-5.02,48.9h-21.32c-1.56-17.62-5.98-35.14-8.78-52.66,12.08-1.33,23.45,1.54,35.11,3.76Z"/>
        <path class="cls-2" d="M193.01,2490.12h-58.93c2.6-11.53,6.37-23.2,6.27-35.11,19.3,8.69,37.87,19.91,52.66,35.11Z"/>
        <path class="cls-4" d="M22.49,2466.3c.44.39.81.86,1.25,1.25,5.14,4.64,12.1,12.26,16.95,17.53,1.42,1.55,3.14,2.58,3.11,5.03h-26.33l-23.82-26.33v-15.05c2.3-1.77,3.38-1.2,5.71-.13,2.72,1.24,20.18,15.07,23.13,17.68Z"/>
        <polygon class="cls-2" points="17.48 2490.12 -6.34 2490.12 -6.34 2463.79 17.48 2490.12"/>
        <path class="cls-2" d="M11.21,1917.12c-3.75,7.32-9.99,15.16-17.55,18.81v-26.33c4.37.89,9.79,2.61,13.84,4.37,2.23.97,3.33,2.97,3.71,3.15Z"/>
        <path class="cls-2" d="M41.3,2460.03c3.76-.73,2.24,1.82,2.69,4.14,1.66,8.64,3.7,17.23,4.84,25.95h-5.02c.03-2.46-1.69-3.49-3.11-5.03-4.85-5.27-11.81-12.9-16.95-17.53,5.06.97,11.32,10.88,15.52,7.63.36-.28,3.03-8.02,3.06-8.47.03-.43-.96-3.69-1.03-6.68Z"/>
        <path class="cls-2" d="M1542.47,2392.9c-3.87,7.31-8.19,14.62-13.13,21.31-13.47,18.23-27.17,35.24-45.06,49.16-15.99,12.43-33.41,20.69-54.24,18.21,11.58-51.42,55.4-99.96,112.43-88.68Z"/>
        <path class="cls-2" d="M152.89,2108.96c15.9,81.67,6.72,158.97-30.09,233.21-4.1,2.73-1.71.15-2.47-1.9-8.55-23.04-17.12-46.39-22.26-70.54-1.11-5.22-5.78-29.98-5.46-33.52.52-5.74,12.28-26.55,15.37-33.62,12.77-29.19,26.54-62.81,41.39-90.33.94-1.75.48-3.97,3.53-3.3Z"/>
        <path class="cls-4" d="M1824.96,1754.84c3.38-2.11,6.98-3.52,10.41-6.06,6.7-4.95,14.82-14.46,17.76-22.43,6.4-17.38,4.9-38.7,3.85-56.87-1.24-1.39-15.61,8.86-17.36,10.49-15.33,14.2-26.65,36.58-23.32,57.56.19,1.2.63,5.08-.41,5.93-9.83-21.72-21.73-42.51-29.23-64.85,1.05-.49,16.76-13.44,17.33-14.41,5.95-27.43,11.25-54.77,19.95-81.29.66-2.67-3.51-4.07-5.62-4.92-4.92-1.98-11.03-2.97-16.14-4.41-4.27,18.48-9.72,36.78-11.89,55.71l-10.61-52.85c-6.76-.56-13.64-.38-19.59,3.2l9.2,55.13-28.06-36.59c-.98-.64-1.65-.59-2.7-.17-1.99.78-16.67,10.85-17.22,12.09l34.28,50.25-46.13-23.75c-2-.27-1.86,4.71-2.53,6.59-1.89,5.28-4.49,10.31-6.05,15.72l65.45,33.28c3.23.52,12.4-9.5,14.34-8.99.21.05,38.29,80.72,38.87,81.28l21.01,45.67h7.31c-3.37-8.48-7.84-16.5-11.87-24.66-3.44-6.96-11.71-25.48-12.79-27.4-.49-2.77.11-2.2,1.76-3.23Z"/>
        <g>
          <path class="cls-2" d="M1626.48,2367.25c-.21,2.14-.74,13.37,1.12,13.77,1.44.31,9.22-10.87,11.2-12.13,24.5-42.83,37.45-99.35,71.13-136.73,3.25-3.6,7.36-7.86,11.49-10.28-7.33-4.83-10.91-7.18-19-11.08-9.78,6.62-17.8,15.24-24.54,24.95-20.19,29.09-47.88,96.45-51.39,131.51Z"/>
          <path class="cls-2" d="M1806.51,1919.41c3.56-2.1,8.35-6.25,11.51-9.08,33.02-29.61,49.69-74.67,63.54-115.4,7.75-22.77,15.21-45.65,24.33-67.91-53.04,17.99-90.17,77.23-99.51,130.5-3.66,20.88-2.46,41.07-1.83,61.91.34-3.92.54.83,1.97,0Z"/>
          <path class="cls-2" d="M1951.82,1720.68c-4.25-.48-7.61-1.02-11.88,0,.59.08,1.92,1.34,3.17.8l-.13,1.85c-11.58,15.92-23.29,34.54-29.98,53.16-5.72,15.91-8.16,32.09-13.06,47.91-12.73,41.15-45.4,92.46-81.85,116.1-1.8,1.17-11.56,7.44-12.73,6.6-3.31-5.56-.13-10.25-.01-15.47.04-1.64-.8-2.87-.82-3.5-24.2,12.93-54.54,45.26-73.8,75.3-1.16.56-1.6,1.69-2.12,2.78-.36.75-.7,1.52-1.04,2.28,0,.01-.01.02-.02.03,0,0,0,0,0,0-7.67,17.02-12.92,37.18-15.56,55.49-7.64,52.97-2.04,107.29,11.77,158.64.91.62,3.68,2.62,6.64,4.81-.04,4.56.58,9.29.03,13.82-.29,2.41-.91,4.74-1.71,7.03-.42.45-.75.83-.96,1.1-15.63,19.47-27.38,42.51-37.42,65.32-10.26,23.32-28.85,76.37-50.12,90.02-5.38,3.45-6.33,1.75-10.87,2.52-2.27.38-4.12,2.4-7.36,2.32-1.14-.03-6.92-1.78-8.06-2.3-9.39-4.22-11.77-24.08-11.8-33.15-.08-21.3,7.61-40.9,14.51-60.28,12.1-34.01,25.89-69.53,50.14-97.13,4.36-4.96,10.06-8.71,14.23-13.87-13.67-3.53-19.82-4.18-34.21-1.35-40.19,7.9-61.3,44.52-71.1,81.32-3.66,13.07-1.52,84.6,6.92,110.66,2.37,7.32,6.04,14.16,8.12,21.56-7.61-4.69-15.07-9.84-23.21-13.64-1.09-.51-2.34-.36-2.91-.61-2.34,4.98-3.97,10.34-6.56,15.21-17.15,32.24-50.34,69.65-83.68,84.97l-14.27,5.92h36.42c7.78-12.58,20.52-17.69,35.17-15.77,6.75.88,17.08,8.8,18.67,15.77h105.31c.31-8.59,5.33-15.08,8.3-22.98,7.78-20.75,9.62-37.45,13.02-59.03,5.61-35.61,10.56-61.47,30.27-92.45,7.4-11.63,15.49-22.51,25.35-30.24.85,1.04,1.72,2.06,2.59,3.05.94,1.06,1.93,2.14,3.21,2.73,2.99,1.37,6.73-.24,9.68,1.2,2,.98,3.12,3.1,4.65,4.72.62.66,1.31,1.22,2.03,1.72-7.95,4.68-15.22,11.89-20.27,18.72-34.07,46.08-27.02,112.54-50.17,164.4-1.24,2.79-3.64,4.99-4.12,8.16h16.63c11.54-26.81,19.45-57.29,38.39-79.98,13.77-16.5,34.61-30.27,54.63-14.22,7.79,6.24,12.01,16.21,15.46,25.32-6.02,4.11-12.83,10.05-18.21,15.04-3.04-8.01-8.13-23.76-17.39-26.58-2.7-.82-7.57,3.26-9.91,5.22-5.4,4.55-10.52,12.08-14.2,18.26-10.56,17.71-18.05,37.14-23.42,56.94h113.22s41.17,0,41.17,0h0s13.46,0,13.46,0h44.34c-.12-1.57.41-2.64,1.22-3.92,3.89-6.13,11.24-13.64,16.2-19.04v-203.49h0v-376.09c-3.13,2.25-4.47,6.85-6.31,9.92-26.2,43.67-39.03,19.11-19.02-13.47,9.56-15.56,13.75-31.95,21.86-47.02.77-1.44,1.5-3.27,3.47-3.27v-1.58l-.54-.63.54-.96v-126.68ZM1808.21,2436.13c3.37-2.16,7.4-4.55,11.09-6.57-3.69,2.02-7.72,4.42-11.09,6.57ZM1838.82,2486.16c-.77,3.38-1.37,6.85-1.9,10.34.53-3.48,1.13-6.96,1.9-10.34,1.35-5.88,2.78-11.75,4.3-17.6-1.52,5.85-2.96,11.71-4.3,17.6ZM1846.51,2419.03c-7.25,1.9-15.42,4.66-22.17,7.92.99-1.21.37-2.37.16-3.65-3.96-23.38-19.37-77.13-32.72-99.03,6.97-2.25,13.93-4.51,20.9-6.76,19.71,26.31,32.12,69.23,34.43,97.44.12,1.52.45,2.72-.59,4.1,1.53-.4,3.1-.84,4.69-1.22-1.59.39-3.16.82-4.69,1.22ZM1895.65,2415.13c-.26.78-.53,1.58-.79,2.36.26-.79.54-1.58.79-2.36,10.54.59,20.69,3.54,30.5,7.51-9.81-3.97-19.96-6.92-30.5-7.51ZM1918.52,2281.99c2.09-4.31,4.67-8.39,6.75-12.69,2.04,4.04,3.79,7.85,4.96,10.98.78,2.09,1.02,6.96,1.84,9.09.3.78,2.77,1.55,2.33,3.76h0c-5.19,6.11-11.36,11.38-16.63,17.42-1.49-.77-2.1-3.31-2.66-4.86-.82-2.25-1.63-4.51-2.47-6.76,1.45-5.83,3.25-11.53,5.88-16.94Z"/>
        </g>
        <path class="cls-4" d="M1786.34,2300.26c-.1,1.71-2.81,10.64-2.37,11.08,1.81,1.82,4.13-3.38,4.88-4.25,1.61-1.89,3.92-4.05,5.41-6.04,2.09-.13,3.63,1.21,5.13,2.4,27.37,21.76,44.93,77.37,47.73,111.48.12,1.52.45,2.72-.59,4.1-7.25,1.9-15.42,4.66-22.17,7.92.99-1.21.37-2.37.16-3.65-4.14-24.42-20.77-81.97-34.49-101.76-16.43-23.7-42.88-4.22-55.48,12.83-34.07,46.08-27.02,112.54-50.17,164.4-1.24,2.79-3.64,4.99-4.12,8.16h-24.55c.31-8.59,5.33-15.08,8.3-22.98,7.78-20.75,9.62-37.45,13.02-59.03,5.62-35.61,10.56-61.47,30.27-92.45,15.84-24.89,34.84-46.34,67.52-40.85,1.33.22,9.69,4.25,10.73,5.11,1.11.93.88,2.31.8,3.55Z"/>
        <path class="cls-4" d="M152.89,2108.96c-3.05-.67-2.59,1.56-3.53,3.3-14.84,27.52-28.61,61.14-41.39,90.33-3.09,7.07-14.85,27.88-15.37,33.62-.32,3.55,4.35,28.3,5.46,33.52,5.15,24.15,13.72,47.5,22.26,70.54.76,2.05-1.63,4.63,2.47,1.9-7.44,15.02-13.99,27.58-23.82,41.38-5.73-5.62-9.63-14.26-12.97-21.51-8.08-17.58-14.24-36.26-19.02-54.98-2.41-.22-2.4,1.69-3.07,3.2-4.79,10.65-8.63,22.14-13.61,32.78-5.39,11.52-17.55,30.23-19.04,41.77-5.35,3.1-2.19,2.23-4.52,6.14-7.89,13.26-13.22,27.23-22.79,39.89-2.94,3.89-4.93,8.27-10.31,9.13v-67.71c22.59-44.8,40.12-92.02,58.99-138.53-9.79-27.51-9.39-74.73-31.36-95.36-12.54-11.77-16.83,6.54-27.63,10.7v-40.12c15.14-6.71,24.73-10.68,41.69-7.21,29.44,6.02,34.34,39.58,42.3,63.02.48,1.4.7,4.54,2.51,4.36,2.83-10.37,6.72-21.11,10.83-31.18,11.74-28.7,25.34-60.72,45.6-84.17,7.42,17.99,12.58,36.06,16.3,55.17Z"/>
        <path class="cls-4" d="M1564.64,2400.82c-2.34,4.98-3.97,10.34-6.56,15.21-17.15,32.24-50.34,69.65-83.68,84.97l-14.27,5.92h-34.05c.47-8.64,2.07-16.96,3.96-25.34,20.83,2.49,38.25-5.77,54.24-18.21,17.89-13.92,31.59-30.93,45.06-49.16,4.94-6.69,9.26-14.01,13.13-21.31,8.43,1.67,14.49,4.55,22.17,7.92Z"/>
        <path class="cls-4" d="M1805.34,2438.03c-6.02,4.11-12.83,10.05-18.21,15.04-3.04-8.01-8.13-23.76-17.39-26.58-2.7-.82-7.57,3.26-9.91,5.22-5.41,4.55-10.52,12.08-14.2,18.26-10.56,17.71-18.05,37.14-23.42,56.94h-25.34c11.54-26.81,19.45-57.29,38.39-79.98,13.77-16.5,34.61-30.27,54.63-14.22,7.79,6.24,12.01,16.21,15.46,25.32Z"/>
        <g>
          <path class="cls-2" d="M1261.21,2443.36c.62,4.44-2.82,6.28-4.35,9.03-6.25,11.19-12.09,25.02-19.04,35.44-1.93,2.9-5.48,5.39-6.33,9.03h-88.17c16.57-14.88,36.42-27.65,56.79-36.83,18.2-8.2,41.25-14.59,61.1-16.67Z"/>
          <path class="cls-2" d="M1323.7,2445.56c.52.63.28,1.16.91,1.76l25.4,49.53h-78.9c3.05-5.76,4.03-12.31,6.16-18.11,4.31-11.73,12.32-23.67,11.67-36.38,11.29.08,23.67.82,34.76,3.19Z"/>
          <path class="cls-4" d="M1367.48,2463.48c-.85,10.54-2.72,21.43-5.94,31.7h-13.87c-3.65-9.2-8.5-17.89-12.88-26.75,4.05-2.73,2.29-6.61,3.2-10.17.55-2.13,3.66-4.01,3.73-6.67,10.65,3.98,15.66,6.06,25.76,11.89Z"/>
          <path class="cls-2" d="M1407.11,2495.18h-45.57c3.22-10.28,5.1-21.16,5.94-31.7,8.99,5.19,17.16,10.24,25.24,16.87,4.94,4.06,11.51,9.21,14.39,14.83Z"/>
          <path class="cls-2" d="M1341.72,2451.59c-.07,2.66-2.88,14.11-6.93,16.84-3.73-7.55-8.24-15.57-11.93-23.12,3.6.54,17.35,5.71,18.86,6.28Z"/>
          <path class="cls-4" d="M1288.95,2442.37c.65,12.71-7.37,24.65-11.67,36.38-2.13,5.8-3.11,12.36-6.16,18.11h-39.63c.84-3.64,4.39-6.13,6.33-9.03,6.95-10.42,12.79-24.25,19.04-35.44,1.53-2.75,4.97-4.59,4.35-9.03,9.15-.95,18.53-1.05,27.74-.99Z"/>
        </g>
        <path class="cls-4" d="M140.35,2455.01c.11,11.91-3.67,23.58-6.27,35.11h-42.63l5.02-48.9c17.59,3.35,27.56,6.44,43.88,13.79Z"/>
        <path class="cls-4" d="M40.05,1935.93c-14.02,13.31-26.85,30.03-46.39,35.11v-35.11c7.56-3.64,13.8-11.49,17.55-18.81,15,7.2,16.72,9.74,28.84,18.81Z"/>
        <path class="cls-4" d="M1702.41,2210.79c-9.78,6.62-17.8,15.24-24.54,24.95-20.19,29.09-47.88,96.45-51.39,131.51-.21,2.14-.74,13.37,1.12,13.77,1.44.31,9.22-10.87,11.2-12.13,24.5-42.83,37.45-99.35,71.13-136.73,3.25-3.6,7.36-7.86,11.49-10.28.43.28,1.62.27,2.38.79,2.16,1.48,14.97,10.79,15.46,11.9.3.67.5,1,.29,1.8-.35,1.34-9.98,10.85-11.75,13.06-15.63,19.47-27.38,42.51-37.42,65.32-10.26,23.32-28.85,76.37-50.12,90.02-5.38,3.45-6.33,1.75-10.87,2.52-2.27.38-4.12,2.4-7.36,2.32-1.14-.03-6.92-1.78-8.06-2.3-9.39-4.22-11.77-24.08-11.8-33.15-.08-21.3,7.61-40.9,14.51-60.28,12.1-34.01,25.89-69.53,50.14-97.13,4.36-4.96,10.06-8.71,14.23-13.87,9.38,2.42,12.61,3.68,21.38,7.92Z"/>
        <path class="cls-4" d="M1939.94,1720.68c.59.08,1.92,1.34,3.17.8l-.13,1.85c-11.58,15.92-23.29,34.54-29.98,53.16-5.72,15.91-8.16,32.09-13.06,47.91-12.73,41.15-45.4,92.46-81.85,116.1-1.8,1.17-11.56,7.44-12.73,6.6-3.31-5.56-.13-10.25-.01-15.47.04-1.64-.8-2.87-.82-3.5-.07-2.89.09-5.82,0-8.71.34-3.92.54.83,1.97,0,3.56-2.1,8.35-6.25,11.51-9.08,33.02-29.61,49.69-74.67,63.54-115.4,7.75-22.77,15.21-45.65,24.33-67.91,8.4-2.85,25.54-7.47,34.05-6.33Z"/>
        <path class="cls-4" d="M1948.35,1853.8c-8.11,15.07-12.31,31.46-21.86,47.02-20.02,32.59-47.32,68.13-73.62,95.82-6.66,7.01-17.61,15.55-23.24,22.48-.9,1.11-21.56,30.7-24.44,35.94-16.43,29.95-25.91,75.27-15.47,107.6,1.23,3.8,4.81,14.2,6.57,17.19,2.57,4.35,6.39,4.76,10.63,6.39,1.37-11.31,2.89-39.26,2.32-41.37-5.97-22.07-2.32-43.92,9.66-63.44,41.57-67.76,100.4-123.48,126.61-167.14,1.84-3.07,3.18-7.67,6.31-9.92v-53.84c-1.97,0-2.69,1.83-3.47,3.27Z"/>
        <path class="cls-4" d="M1928.86,2092.82c4.05,4.2,13.45,12.23,15.84,16.63.16.29-.04,1.42.41,2.33.37.75,2.28,1.95,1.96,2.41-.05.07-1.13-.3-1.53.6-15.94,35.31-31.78,56.3-67.86,72.93-7,3.23-17.39,8.44-24.82,6.45,2.2-7.49,4.74-14.64,7.13-22.17,7.16-4.04,14.71-5.53,21.64-10.43,19.86-14.05,36.83-34.83,43.85-58.29,1-3.34.15-7.44,3.4-10.46Z"/>
        <path class="cls-4" d="M1909.72,2242.99c6.47,9.14,16.63,26.9,20.51,37.29.78,2.09,1.02,6.96,1.84,9.09.3.78,2.77,1.55,2.33,3.76-5.19,6.11-11.36,11.38-16.63,17.42-1.49-.77-2.1-3.31-2.66-4.86-4.27-11.76-8.44-23.66-16.18-33.7-.62-2.62-.39-2.89,2.21-2.61.24.07.55-.07.79,0,.53,1.14,2.14.82,3.17.79,1.52-.04,2.59-.24,1.43-2.24-.31-.54-8.53-5.99-10.14-7.26-5.94-7.27-11.07-15.1-16.15-23.04-.65-1.01-.75-2.34-1.39-3.36-2.28-3.6-6.93-6.98-7-11.6,3.18-2.28,30.05,9.27,37.87,20.32Z"/>
        <path class="cls-2" d="M1878.85,2234.27c.64,1.02,11.6,19.13,17.54,26.4-12.13-9.65-24.09-19.53-36.42-28.93-.55-2.24,16.6-1.07,18.88,2.53Z"/>
        <path class="cls-2" d="M1905.1,2270.17c-1.03.03-2.64.35-3.17-.79.85.23,2.62-.55,3.17.79Z"/>
      </g>
    </g>
  </g>
</svg>