<?xml version="1.0" encoding="UTF-8"?>
<svg id="Layer_2" data-name="Layer 2" xmlns="http://www.w3.org/2000/svg" viewBox="0 0 1434.11 54.81">
  <defs>
    <style>
      .cls-1 {
        fill: #ebe0bb;
        font-family: Poppins-Bold, Poppins;
        font-size: 18.28px;
        font-weight: 700;
      }

      .cls-2 {
        fill: #ef5523;
      }
    </style>
  </defs>
  <g id="Layer_1-2" data-name="Layer 1">
    <g>
      <g>
        <text class="cls-1" transform="translate(33.83 35.76)"><tspan x="0" y="0" xml:space="preserve"> Ready-to-Eat Meals</tspan></text>
        <g>
          <path class="cls-2" d="M8.73,0c.1,0,.18.1.2.2.06,2.37.08,4.75.1,7.12.07,10.1-.16,17.08.23,27.21.19,4.83.44,9.66.6,14.48.04,1.31.28,2.44-.28,3.69-1.52,3.41-6.64,2.47-6.89-1.29-.04-.65.06-1.3.09-1.95.38-6.55,1.09-9.83,1.48-16.38.02-.34.08-.84.05-1.16-.07-.63-1.03-.96-1.51-1.31-.81-.58-1.84-1.69-2.46-2.49-.18-.23-.48-.54-.23-.83.19-.26,1.56-1.19,1.58-1.39,0-.08-.14-.28-.21-.35-.29-.32-.7-.6-1-.95-.14-.17-.46-.55-.4-.76.09-.33,1.25-1.3,1.51-1.64.04-.04.05-.09.05-.14,0-.19-.63-.63-.79-.79-.12-.12-.59-.55-.63-.67.01-.65.15-1.31.21-1.97C.97,12.57,1.54,6.15,6.22,1.69,6.63,1.3,8.21-.04,8.73,0Z"/>
          <path class="cls-2" d="M13.46.41c.26-.05,1.22-.04,1.45.06.24.1.26.29.31.52l.38,10.86c.06.34.03.6.35.8.5.31,1.08-.01,1.17-.57.21-1.36.08-2.93.28-4.3.19-2.15.09-4.44.32-6.57.04-.37.19-.73.59-.8.28-.05,1.19-.04,1.42.09.18.1.24.33.26.53.07.71,0,1.58.04,2.32.07,1.48.19,2.97.28,4.44.08,1.3.06,2.64.19,3.93.04.44.13.98.67,1.04,1.19.13.92-1.38.95-2.11.13-2.92.24-5.86.37-8.79.02-.44-.15-1.34.45-1.45.27-.05,1.3-.04,1.53.07.4.2.31.88.34,1.24.33,3.83.55,7.69.74,11.52.05,1.1.3,2.37-.04,3.42-.61,1.9-2.6,2.32-3.79,3.75-1.37,1.64-.94,3.32-.83,5.27.41,7.59,1.1,15.18,1.57,22.77.11,1.69.47,3.7-.72,5.11-1.68,2-4.9,1.51-5.94-.86-.7-1.59-.17-4.43-.05-6.19.5-7.82.96-15.64,1.48-23.46-.05-1.02-.61-2.08-1.3-2.82-1-1.09-2.46-1.53-3.3-2.81-.67-1.03-.64-1.87-.59-3.06.13-3.5.49-7.1.74-10.6.06-.85.05-1.75.14-2.59.04-.33.17-.69.54-.75Z"/>
        </g>
      </g>
      <g>
        <text class="cls-1" transform="translate(289.3 35.76)"><tspan x="0" y="0" xml:space="preserve"> Sandwiches &amp; Wraps</tspan></text>
        <g>
          <path class="cls-2" d="M273.49,1.42c1.38-.22,2.23.82,2.47,2.07.41,2.11.33,4.38.61,6.5.77,1.6,3.97,4.4,4.02,6.1.05,1.59-1.61,2.37-1.44,3.85.17,1.57,2.01,2.35,2.54,3.73.7,1.82-1.87,3.2-1.85,4.52.02.87,1.77,3.54,2.17,4.59.95,2.52-1.46,3.68-2.51,5.62-.09,2.61.42,5.36.21,7.95-.1,1.31-1.12,2.72-2.5,2.85-1.51.14-2.38-.75-3.41-1.65-6.29-5.46-12.19-11.38-18.36-16.96-1.16-1.05-2.64-2.17-3.7-3.27-.84-.88-.61-1.5.04-2.36,1.56-2.06,3.46-4.07,5.13-6.06,3.77-4.47,7.56-9.17,11.61-13.37.91-.94,3.83-3.92,4.98-4.1Z"/>
          <path class="cls-2" d="M252.38,29.92c.26-.05.59.27.79.45,1.92,1.64,3.76,3.62,5.63,5.35,5.09,4.74,10.26,9.4,15.42,14.07.27.16.54.39.82.51.96.42,1.69-.12,1.56,1.31-.11,1.1-1.1,1.91-2.2,1.8-1.18-.12-2.92-1.83-3.84-2.63-3.72-3.21-7.28-6.61-10.9-9.93-2.62-2.39-5.47-4.74-7.99-7.21-.64-.62-1.11-1-.94-2,.07-.46,1.24-1.64,1.67-1.72Z"/>
        </g>
      </g>
      <g>
        <text class="cls-1" transform="translate(833.85 35.76)"><tspan x="0" y="0" xml:space="preserve"> Snacks &amp; Sides</tspan></text>
        <path class="cls-2" d="M814.66,25.04h1.87c.02-.22-.09-.42-.09-.63.02-.94.36-2.15.43-3.14.08-1.09-.02-2.29.09-3.39.15-1.62.3-3.2.42-4.83.12-1.49.55-2.97.61-4.47.14-.41.28-.72.77-.74,1.05.31,2.2.45,3.24.75.31.09,1.06.29,1.13.65.12.6-.09,1.35-.17,1.95-.27,2.1-.8,4.27-1.16,6.38-.43,2.49-.74,5-1.21,7.48.31-.06,1.11.14,1.26-.14l3.15-11.77.21-.12c1.19.38,2.47.6,3.65,1.01.65.23.87.28.76,1.03-.22,1.45-1.1,3.03-1.51,4.42-.46,1.52-.71,3.06-1.27,4.58-.1.27-.37.63-.4.87-.03.17.01.11.13.13.45.06,1.61-.1,1.81.57.11.37-.25,2.23-.35,2.76-.8,4.56-1.83,9.09-2.73,13.63-.35,1.77-.58,3.7-1,5.45-.14.58-.27.98-.85,1.27-.71.36-1.72.08-2.47.06-5.8-.09-11.66-.1-17.47,0-.36,0-.69.13-1.1.09-.68-.06-1.14-.37-1.35-1.02-.36-1.11-.62-2.7-.86-3.89-.99-4.78-1.9-9.57-2.85-14.36-.19-.96-.83-2.76-.64-3.65s1.69-.34,1.66-.85c-.76-1.92-1.29-3.92-1.91-5.89-.22-.7-1.11-2.45-.83-3.07.1-.23,1.36-.68,1.67-.79.44-.15,2.01-.69,2.33-.38l3.67,10.15h1.27c-.95-3.62-2.24-7.16-3.26-10.77-.38-1.33-.78-2.7-1.14-4.03-.54-2.01.16-1.62,1.63-1.93.32-.07.61-.23.98-.29.63-.11,1.3-.09,1.93-.28.73.01.61.93.74,1.46,1.1,4.43,1.95,8.91,2.71,13.4.14.84.41,1.67.48,2.53.09.03.19-.08.21-.08h1.4c0-.18-.12-.32-.15-.49-.35-1.76-.45-3.84-.71-5.65-.53-3.8-1.07-7.57-1.52-11.36-.04-.34-.27-.72-.24-1.1.05-.82.92-.45,1.48-.47.93-.04,1.85-.08,2.8-.08.6,0,1.75-.25,2.19.26.47.55.2,2.32.22,3.09.07,3.78.35,7.59.35,11.35v4.37Z"/>
      </g>
      <g>
        <text class="cls-1" transform="translate(561.28 35.76)"><tspan x="0" y="0" xml:space="preserve"> Salads &amp; Healthy Bowls</tspan></text>
        <g>
          <path class="cls-2" d="M536.99,30.14c-.24-.54-.57-1.05-.77-1.61-.54-1.56-.31-3.34.57-4.72l9.53,4.75c.08.11-.82,1.33-.87,1.58,1.74-.02,3.48,0,5.22,0,.89,0,1.78-.02,2.67,0,.25,0,.55-.07.84-.02.44.08.66.34.66.8,0,.48-.23,1.34-.35,1.84-1.31,5.59-4.6,10.33-9.78,12.94-.07.61.03,1.27-.09,1.87-.11.56-.46.71-.99.75h-17.7c-1.56,0-.99-1.66-1.14-2.68-5.06-2.41-8.24-7-9.69-12.32-.17-.64-.52-1.83-.5-2.46,0-.27.22-.74.52-.74h21.87Z"/>
          <path class="cls-2" d="M524.56,16.52c.35.35.87.11,1.26.13,1.28.06,1.13,1.76,1.01,2.64-.25,1.81-.96,3.23-.97,5.19-.01,1.53.42,3.08.76,4.56l-.72-.03c-1.37-4.76-2.94-9.59-5.01-14.1-.18-.38-1.21-2.62-1.43-2.72-.3-.14-.61.43-.48.7,2.25,5.25,4.15,10.64,5.67,16.15l-.52-.05c-.78-1.41-1.5-3-2.97-3.8-1.23-.67-3.64-.93-4.45-1.99-.54-.7-.35-1.79.5-2.12.58-.23,1.75.08,1.3-1.05s-3.6-2.08-4.56-3.25c-.43-.53-.64-1.25-.3-1.89.54-1,2.08-.11,2.37-1.07s-1.02-2.81-1.31-3.76c-.98-3.2,1.87-4.9,4.13-2.38.61.68,1.24,1.88,2.25,2.01.87.11,1.38-.63,2.4-.21,1.84.76.86,4.24.78,5.72-.02.42-.02,1,.29,1.32Z"/>
          <path class="cls-2" d="M552.34,29.49h-4.91l.49-1.26-4.96-2.66c-.06-.17.44-1.32.55-1.57,2.06-4.64,6.35-8.38,11.44-9.2.67-.11,1.34-.14,2.01-.22.09.04.09.09.08.18,0,.22-.23.81-.31,1.06-.57,1.87-1.26,3.71-1.86,5.57-.86,2.69-1.66,5.41-2.53,8.1Z"/>
          <path class="cls-2" d="M531.74,12.19c5.08-.37,8.82,4.98,6.3,9.53-.1.18-.69,1.12-.85,1.1l-.91-.35c-.53.63-.74,1.47-1.18,2.15-.39.19-.8.33-1.22.42-2.2.48-4.42-.1-6.06-1.64-.15-.14-.74-.76-.79-.9-.03-.1-.03-.13-.02-.23.04-.31.35-.98.45-1.35.31-1.11.72-3,.25-4.07-.25-.57-.8-.92-1.3-1.25,1.07-1.93,3.12-3.24,5.33-3.4ZM530.87,15.08c-.92.13-.27,1.71.46,1.56.56-.11.37-1.69-.46-1.56ZM534.09,15.35c-1.01.13-1.02,2.16.12,1.27.48-.37.54-1.36-.12-1.27ZM529.12,17.81c-.36.06-.54.29-.46.66.2.96,2.23.32,1.38-.45-.25-.23-.59-.26-.91-.21ZM535.01,18.3c-1.05.18-.53,1.31.57,1.12.71-.12.59-.97-.07-1.11-.17-.04-.34-.04-.51-.01ZM530.7,20.43c-.47.1-1.07.96-.56,1.35.86.67,1.73-1.59.56-1.35ZM533.27,20.59c-.66.12-.24,1.76.62,1.5.77-.24.03-1.61-.62-1.5Z"/>
          <path class="cls-2" d="M551.08,7.37c.15.18-.79,3.62-.92,4.09.56-.41,1.12-.82,1.66-1.26.48-.38.95-.88,1.45-1.22.32-.22.45-.37.76-.06.6.6,1.03,1.59,1.16,2.42.97.19,1.62.91,1.73,1.89-.03.07-.06.05-.11.06-.41.08-.98.03-1.44.09-3.01.34-5.72,1.64-8.03,3.54-.86-1.82-1.94-3.56-3.41-4.94-.86-.81-1.86-1.45-2.76-2.21-.11-.1-.1-.25-.05-.39.21-.64,1.65-.45,2.18-.55.67-1.04,1.97-1.59,3.12-.98.22.12.38.31.6.44.91-1.58,2.54-1.36,4.06-.92Z"/>
          <path class="cls-2" d="M538.31,23.31c-.06-.08.52-.89.61-1.05,1.19-2.16,1.17-4.74.26-7,.26-1.46.32-2.96.55-4.42.01-.08.02-.35.13-.31,2.89,1.73,5.45,3.95,6.57,7.23-1.64,1.55-3,3.44-3.97,5.48-.11.24-.64,1.64-.72,1.69-.15.11-2.98-1.54-3.44-1.62Z"/>
        </g>
      </g>
      <g>
        <text class="cls-1" transform="translate(1048.23 35.76)"><tspan x="0" y="0" xml:space="preserve"> Catering Solutions</tspan></text>
        <g>
          <path class="cls-2" d="M1015.28,15.97l-.76-.83c-1.87-2.49-.18-6.24,2.98-6.27,2.93-.02,5.25,3.07,3.7,5.75-.27.47-.73.72-.97,1.09-.07.1-.16.08,0,.21.95.22,1.94.3,2.89.51,9.73,2.18,16.74,9.43,18.77,19.18.18.85.86,5.02.47,5.52-.16.2-.83.25-1.09.25-15.39-.06-30.95-.23-46.5-.11-.47,0-1.17.26-1.59-.15-.17-.16-.11-.77-.1-1.03.24-5.51,2.77-11.73,6.32-15.89,4-4.69,9.73-7.64,15.89-8.23Z"/>
          <path class="cls-2" d="M993.7,45.94h49.95v-1.12c0-1.44-1.17-2.61-2.61-2.61h-49.57v1.49c0,1.24,1,2.24,2.24,2.24Z"/>
        </g>
      </g>
      <g>
        <text class="cls-1" transform="translate(1299.38 35.76)"><tspan x="0" y="0" xml:space="preserve"> B2B Packages</tspan></text>
        <g>
          <path class="cls-2" d="M1286.43,21.13c1.89,2.17,3.92,4.21,5.87,6.32.18.2.91.97.91,1.15s-.17.38-.34.45c-1.62.7-3.28,1.36-4.88,2.11-.28.13-1.41.63-1.49.81l-.08,10.4c-.12.18-.29.29-.48.4-1.44.79-3.38,1.39-4.93,2.06-3.77,1.64-7.57,3.64-11.33,5.19-.48.2-.93.42-1.11-.27-.22-.84.02-2.17.03-3.04,0-.91-.08-1.8-.09-2.7-.02-4.51.01-9.02.01-13.53.62-.35.87.4,1.22.78,1.66,1.84,3.37,3.63,4.89,5.59.18.12.26.15.47.09s1.35-.69,1.35-.88c-1.54-1.85-3.08-3.7-4.65-5.52-.68-.79-1.68-1.67-2.26-2.5-.15-.21-.34-.4-.2-.67,5.38-2.29,10.89-4.23,16.32-6.39.28-.1.55-.05.77.15Z"/>
          <path class="cls-2" d="M1266.1,31.13c.06.07.09.38.1.49.14,1.85-.03,3.99,0,5.88.04,4.04.14,8.1.09,12.15-.09.67-.92.26-1.3.1-3.59-1.48-7.3-3.46-10.88-5.09-1.72-.78-3.47-1.48-5.18-2.29-.22-.25-.33-.58-.36-.91-.13-1.51.07-3.1.09-4.61.01-1.65.01-3.31-.04-4.97l-6.46-2.91v-.46s6.14-7.27,6.14-7.27c.22-.27.45-.35.8-.32,4.34,1.55,8.59,3.33,12.89,4.99.44.17,3.38,1.13,3.48,1.29.08.13.05.34,0,.48l-6.78,8.07c-.41.63,1.14,1.31,1.6,1.21.39-.08,1.13-1.23,1.45-1.57.53-.58,1.11-1.1,1.63-1.71.39-.46,1.82-2.55,2.28-2.65.13-.03.39-.01.48.09Z"/>
          <path class="cls-2" d="M1293.11,9.84l.06.45c-.36.29-.56.72-.84,1.07-1.19,1.48-2.66,2.9-3.93,4.33-.76.85-1.39,1.87-2.31,2.54-.69-.04-1.26-.43-1.9-.64-4.9-1.65-9.87-3.06-14.78-4.68-.77-.25-1.28-.24-.71-1.11,1.52-2.33,4.05-4.49,5.63-6.84l.64-.39c3.36.88,6.69,1.89,10.03,2.83,2.71.77,5.5,1.32,8.1,2.42Z"/>
          <path class="cls-2" d="M1258.79,4.84c.13-.02.22-.04.36,0,.33.09,1.79,1.97,2.16,2.37,1.08,1.17,2.19,2.31,3.26,3.49.34.38,1.61,1.37,1.35,1.91-.09.17-1.02.46-1.27.56-2.82,1.04-5.77,1.92-8.62,2.9-1.74.6-3.44,1.32-5.2,1.86-.44.14-1.77.62-2.13.54-.08-.02-.15-.06-.21-.11-.95-.96-1.76-2.05-2.66-3.05-1.06-1.18-2.22-2.29-3.26-3.49-.36-.42-.75-.82-.98-1.33-.01-.09.05-.13.1-.19.22-.25,1.64-.56,2.07-.71,3.87-1.32,7.79-2.42,11.69-3.63.91-.28,2.5-1,3.33-1.12Z"/>
          <path class="cls-2" d="M1267.06,14.37c3.33.89,6.6,2.06,9.88,3.1,1.36.43,2.76.75,4.11,1.21.33.11,1.31.45,1.54.6.33.22.18.56-.13.72-.59.3-1.56.54-2.22.8-3.81,1.5-7.89,3.27-11.77,4.51-.39.12-1.01.37-1.41.3l-14.67-5.5c-.3-.08-.33-.39-.07-.55,4.88-1.83,9.81-3.53,14.75-5.19Z"/>
        </g>
      </g>
    </g>
  </g>
</svg>