<?xml version="1.0" encoding="UTF-8"?>
<svg id="Layer_2" data-name="Layer 2" xmlns="http://www.w3.org/2000/svg" viewBox="0 0 78.9 79.05">
  <defs>
    <style>
      .cls-1 {
        fill: #066;
      }
    </style>
  </defs>
  <g id="Layer_1-2" data-name="Layer 1">
    <g id="qTin4f">
      <path class="cls-1" d="M38.39.04c3.35-.23,6.62.62,9.31,2.65,1.34,1.01,2.86,3.33,4.21,3.96,2.09.97,4.58.19,6.85.38,6.18.53,11.46,6.25,11.96,12.35.25,3.02-1.02,5.08,1.58,7.52,1.3,1.22,2.84,2.14,3.96,3.65,3.76,5.05,3.42,12.35-.61,17.14-1.57,1.86-3.69,2.34-3.99,5.1-.17,1.53.33,3.01.34,4.46,0,6.8-5.52,13.03-12.31,13.64-2.06.19-4.32-.56-6.21.1-2.33.81-3.63,3.64-5.57,5.2-4.68,3.76-12.1,3.84-16.81.09-2.15-1.72-3.27-4.47-6.5-4.47-2.44,0-3.85.5-6.44-.22-5.42-1.5-9.51-6.27-9.98-11.92-.22-2.63.83-4.65-1.02-6.96-.83-1.04-2.49-1.88-3.45-2.87-4.74-4.85-4.89-12.94-.73-18.19,1.26-1.58,3.53-2.62,4.09-4.64.6-2.16-.35-5.02.07-7.54,1.03-6.08,6.3-10.87,12.45-11.31,2.97-.21,5.12,1.06,7.7-1.21,1.03-.91,1.99-2.64,3.06-3.62C32.49,1.39,35.54.24,38.39.04Z"/>
    </g>
  </g>
</svg>