<?xml version="1.0" encoding="UTF-8"?>
<svg id="Layer_2" data-name="Layer 2" xmlns="http://www.w3.org/2000/svg" viewBox="0 0 377.2 191.11">
  <defs>
    <style>
      .cls-1 {
        fill: #ebe0bb;
      }
    </style>
  </defs>
  <g id="Layer_1-2" data-name="Layer 1">
    <g>
      <path class="cls-1" d="M108.09,55.4h-25.76l-4.94,13.45h-5.99l20.65-55.89h6.4l20.57,55.89h-5.99l-4.94-13.45ZM106.39,50.7l-11.18-30.62-11.18,30.62h22.35Z"/>
      <path class="cls-1" d="M140.45,26.89c3.05-1.94,6.65-2.92,10.81-2.92s7.67.93,10.85,2.79c3.19,1.86,5.68,4.51,7.49,7.94,1.81,3.43,2.71,7.41,2.71,11.95s-.91,8.53-2.71,11.99c-1.81,3.46-4.32,6.13-7.53,8.02-3.21,1.89-6.82,2.83-10.81,2.83-4.21,0-7.84-.96-10.89-2.88-3.05-1.92-5.28-4.41-6.68-7.49v9.72h-5.59V8.91h5.59v25.51c1.46-3.08,3.71-5.59,6.76-7.53ZM164.42,37.14c-1.43-2.67-3.39-4.71-5.87-6.12-2.48-1.4-5.29-2.11-8.42-2.11s-5.79.73-8.3,2.19-4.5,3.54-5.95,6.24c-1.46,2.7-2.19,5.83-2.19,9.4s.73,6.7,2.19,9.4c1.46,2.7,3.44,4.78,5.95,6.24s5.28,2.19,8.3,2.19,5.94-.71,8.42-2.15c2.48-1.43,4.44-3.51,5.87-6.24,1.43-2.73,2.15-5.9,2.15-9.52s-.72-6.84-2.15-9.52Z"/>
      <path class="cls-1" d="M190.91,66.7c-3.32-1.86-5.94-4.51-7.86-7.94-1.92-3.43-2.88-7.44-2.88-12.03s.97-8.6,2.92-12.03c1.94-3.43,4.59-6.08,7.94-7.94,3.35-1.86,7.1-2.79,11.26-2.79s7.92.93,11.3,2.79c3.37,1.86,6.02,4.51,7.94,7.94,1.92,3.43,2.88,7.44,2.88,12.03s-.97,8.53-2.92,11.99c-1.94,3.46-4.62,6.12-8.02,7.98-3.4,1.86-7.18,2.79-11.34,2.79s-7.9-.93-11.22-2.79ZM210.22,62.57c2.48-1.32,4.5-3.32,6.03-5.99,1.54-2.67,2.31-5.95,2.31-9.84s-.76-7.17-2.27-9.84c-1.51-2.67-3.51-4.67-5.99-5.99-2.48-1.32-5.18-1.98-8.1-1.98s-5.62.66-8.1,1.98c-2.48,1.32-4.47,3.32-5.95,5.99-1.49,2.67-2.23,5.95-2.23,9.84s.74,7.17,2.23,9.84c1.48,2.67,3.46,4.67,5.91,5.99,2.46,1.32,5.14,1.98,8.06,1.98s5.62-.66,8.1-1.98Z"/>
      <path class="cls-1" d="M273.08,24.62v44.22h-5.67v-7.78c-1.3,2.75-3.29,4.86-5.99,6.32-2.7,1.46-5.72,2.19-9.07,2.19-5.29,0-9.61-1.63-12.96-4.9-3.35-3.27-5.02-8-5.02-14.21v-25.84h5.59v25.19c0,4.81,1.2,8.48,3.6,11.02,2.4,2.54,5.68,3.81,9.84,3.81s7.67-1.35,10.21-4.05c2.54-2.7,3.81-6.67,3.81-11.91v-24.06h5.67Z"/>
      <path class="cls-1" d="M293.41,29.4v27.46c0,2.7.51,4.56,1.54,5.59,1.03,1.03,2.83,1.54,5.43,1.54h5.18v4.86h-6.07c-4,0-6.97-.93-8.91-2.79-1.94-1.86-2.92-4.93-2.92-9.19v-27.46h-6.16v-4.78h6.16v-11.1h5.75v11.1h12.15v4.78h-12.15Z"/>
      <path class="cls-1" d="M42.89,87.72c4.51,2.4,7.98,5.76,10.41,10.08,2.43,4.32,3.65,9.26,3.65,14.82s-1.23,10.42-3.69,14.74c-2.46,4.32-5.94,7.71-10.45,10.17-4.51,2.46-9.73,3.69-15.67,3.69H4.54v-57.1h22.6c5.99,0,11.24,1.2,15.75,3.6ZM36.85,123.4c2.64-2.54,3.97-6.13,3.97-10.77s-1.32-8.33-3.97-10.89c-2.65-2.56-6.29-3.85-10.93-3.85h-5.51v29.32h5.51c4.64,0,8.29-1.27,10.93-3.81Z"/>
      <path class="cls-1" d="M107.24,121.7h-30.05c.16,2.48.85,4.33,2.07,5.55s2.77,1.82,4.66,1.82c2.64,0,4.54-1.19,5.67-3.56h16.93c-.7,3.13-2.07,5.93-4.09,8.38-2.03,2.46-4.58,4.39-7.65,5.79-3.08,1.41-6.48,2.11-10.21,2.11-4.48,0-8.46-.94-11.95-2.83-3.48-1.89-6.21-4.59-8.18-8.1-1.97-3.51-2.96-7.64-2.96-12.39s.97-8.87,2.92-12.35c1.94-3.48,4.66-6.17,8.14-8.06,3.48-1.89,7.49-2.83,12.03-2.83s8.45.92,11.91,2.75c3.46,1.84,6.16,4.47,8.1,7.9,1.94,3.43,2.92,7.46,2.92,12.11,0,1.24-.08,2.48-.24,3.73ZM91.28,114c0-1.94-.65-3.47-1.94-4.58-1.3-1.11-2.92-1.66-4.86-1.66s-3.54.53-4.78,1.58c-1.24,1.05-2.05,2.61-2.43,4.66h14.01Z"/>
      <path class="cls-1" d="M129.84,81.28v59.94h-15.88v-59.94h15.88Z"/>
      <path class="cls-1" d="M140.16,89.26c-1.7-1.54-2.55-3.47-2.55-5.79s.85-4.35,2.55-5.91c1.7-1.57,3.95-2.35,6.76-2.35s4.98.78,6.68,2.35c1.7,1.57,2.55,3.54,2.55,5.91s-.85,4.25-2.55,5.79-3.93,2.31-6.68,2.31-5.06-.77-6.76-2.31ZM154.78,95.78v45.44h-15.88v-45.44h15.88Z"/>
      <path class="cls-1" d="M188.4,108.98h-7.13v32.24h-15.96v-32.24h-4.94v-13.2h4.94v-.4c0-5.83,1.71-10.3,5.14-13.41,3.43-3.1,8.36-4.66,14.78-4.66,1.3,0,2.29.03,3,.08v13.53c-.43-.05-1.03-.08-1.78-.08-1.73,0-3,.39-3.81,1.17-.81.78-1.27,2.04-1.38,3.77h7.13v13.2Z"/>
      <path class="cls-1" d="M216.42,97.64c2.54-1.51,5.26-2.27,8.18-2.27v16.93h-4.46c-3.46,0-6.02.68-7.69,2.03-1.67,1.35-2.51,3.7-2.51,7.05v19.84h-15.88v-45.44h15.88v8.02c1.78-2.59,3.94-4.64,6.48-6.16Z"/>
      <path class="cls-1" d="M273.44,121.7h-30.05c.16,2.48.85,4.33,2.07,5.55s2.77,1.82,4.66,1.82c2.65,0,4.54-1.19,5.67-3.56h16.93c-.7,3.13-2.07,5.93-4.09,8.38-2.02,2.46-4.58,4.39-7.65,5.79-3.08,1.41-6.48,2.11-10.21,2.11-4.48,0-8.46-.94-11.95-2.83-3.48-1.89-6.21-4.59-8.18-8.1-1.97-3.51-2.96-7.64-2.96-12.39s.97-8.87,2.92-12.35c1.94-3.48,4.66-6.17,8.14-8.06,3.48-1.89,7.49-2.83,12.03-2.83s8.45.92,11.91,2.75c3.46,1.84,6.16,4.47,8.1,7.9,1.94,3.43,2.92,7.46,2.92,12.11,0,1.24-.08,2.48-.24,3.73ZM257.48,114c0-1.94-.65-3.47-1.94-4.58-1.3-1.11-2.92-1.66-4.86-1.66s-3.54.53-4.78,1.58c-1.24,1.05-2.05,2.61-2.43,4.66h14.01Z"/>
      <path class="cls-1" d="M288.55,139.72c-3.21-1.38-5.75-3.27-7.61-5.67-1.86-2.4-2.9-5.12-3.12-8.14h15.39c.22,1.46.89,2.59,2.03,3.4,1.13.81,2.54,1.21,4.21,1.21,1.3,0,2.32-.27,3.08-.81.76-.54,1.13-1.24,1.13-2.11,0-1.13-.62-1.97-1.86-2.51-1.24-.54-3.29-1.13-6.16-1.78-3.24-.65-5.94-1.38-8.1-2.19-2.16-.81-4.04-2.13-5.63-3.97-1.59-1.83-2.39-4.32-2.39-7.45,0-2.7.73-5.14,2.19-7.33s3.6-3.93,6.44-5.22c2.83-1.3,6.25-1.94,10.25-1.94,5.94,0,10.61,1.46,14.01,4.37,3.4,2.92,5.37,6.75,5.91,11.5h-14.34c-.27-1.46-.9-2.58-1.9-3.36-1-.78-2.34-1.17-4.01-1.17-1.3,0-2.28.24-2.96.73-.68.49-1.01,1.16-1.01,2.02,0,1.08.62,1.9,1.86,2.47,1.24.57,3.24,1.15,5.99,1.74,3.29.7,6.03,1.49,8.22,2.35,2.19.86,4.1,2.25,5.75,4.17,1.65,1.92,2.47,4.52,2.47,7.82,0,2.65-.77,5.02-2.31,7.13-1.54,2.11-3.73,3.77-6.56,4.98-2.83,1.22-6.17,1.82-10,1.82-4.1,0-7.76-.69-10.98-2.07Z"/>
      <path class="cls-1" d="M368.41,100.6c3.05,3.48,4.58,8.2,4.58,14.13v26.49h-15.88v-24.38c0-2.59-.68-4.63-2.03-6.12-1.35-1.48-3.16-2.23-5.43-2.23s-4.24.74-5.59,2.23c-1.35,1.49-2.02,3.52-2.02,6.12v24.38h-15.88v-59.94h15.88v20.98c1.4-2.05,3.31-3.71,5.71-4.98,2.4-1.27,5.17-1.9,8.3-1.9,5.18,0,9.3,1.74,12.35,5.22Z"/>
    </g>
  </g>
</svg>