<?xml version="1.0" encoding="UTF-8"?>
<svg id="Layer_2" data-name="Layer 2" xmlns="http://www.w3.org/2000/svg" viewBox="0 0 427.57 428.4">
  <defs>
    <style>
      .cls-1 {
        fill: #ebe0bb;
        font-family: Poppins-Bold, Poppins;
        font-size: 45.39px;
        font-weight: 700;
      }

      .cls-2 {
        opacity: .6;
        stroke-width: 1.03px;
      }

      .cls-2, .cls-3, .cls-4, .cls-5, .cls-6, .cls-7 {
        fill: none;
        stroke: #066;
        stroke-miterlimit: 10;
      }

      .cls-3 {
        opacity: 0;
        stroke-width: .81px;
      }

      .cls-4 {
        opacity: .4;
        stroke-width: .96px;
      }

      .cls-5 {
        opacity: .8;
        stroke-width: 1.1px;
      }

      .cls-6 {
        opacity: .2;
        stroke-width: .89px;
      }

      .cls-7 {
        stroke-width: 1.18px;
      }

      .cls-8 {
        fill: #066;
      }
    </style>
  </defs>
  <g id="Layer_1-2" data-name="Layer 1">
    <g>
      <g id="qTin4f">
        <path class="cls-8" d="M206.35,77.12c12.55-.88,24.82,2.32,34.9,9.93,5.02,3.79,10.73,12.5,15.79,14.84,7.85,3.63,17.16.71,25.71,1.44,23.18,1.98,42.97,23.43,44.87,46.33.94,11.32-3.84,19.05,5.91,28.2,4.86,4.56,10.65,8.02,14.86,13.68,14.1,18.95,12.84,46.33-2.3,64.28-5.9,6.99-13.84,8.79-14.98,19.13-.63,5.72,1.25,11.3,1.26,16.71.02,25.49-20.69,48.85-46.17,51.15-7.74.7-16.19-2.1-23.3.37-8.74,3.04-13.62,13.65-20.88,19.5-17.55,14.12-45.37,14.4-63.02.33-8.08-6.44-12.25-16.75-24.37-16.76-9.17,0-14.45,1.86-24.16-.84-20.32-5.64-35.68-23.51-37.43-44.71-.82-9.85,3.11-17.42-3.82-26.11-3.12-3.91-9.33-7.07-12.92-10.75-17.76-18.2-18.35-48.54-2.74-68.23,4.71-5.94,13.22-9.81,15.33-17.38,2.26-8.11-1.32-18.81.28-28.26,3.85-22.8,23.62-40.76,46.69-42.42,11.15-.8,19.21,3.99,28.89-4.53,3.87-3.4,7.46-9.91,11.49-13.58,7.99-7.26,19.44-11.58,30.14-12.33Z"/>
      </g>
      <text class="cls-1" transform="translate(137.98 207.37)"><tspan x="0" y="0">WORK</tspan><tspan x="-23.01" y="54.47">WITH US</tspan></text>
      <g id="qTin4f-2" data-name="qTin4f">
        <g>
          <path class="cls-7" d="M206.04,65.53c13.53-.95,26.76,2.51,37.63,10.71,5.42,4.09,11.57,13.48,17.02,16,8.46,3.92,18.51.77,27.72,1.56,25,2.13,46.33,25.27,48.38,49.95,1.01,12.21-4.14,20.54,6.37,30.41,5.24,4.92,11.48,8.65,16.02,14.75,15.2,20.43,13.85,49.96-2.48,69.31-6.37,7.54-14.92,9.48-16.15,20.63-.68,6.17,1.35,12.19,1.36,18.02.02,27.49-22.31,52.67-49.78,55.16-8.35.76-17.46-2.26-25.12.4-9.42,3.28-14.68,14.72-22.52,21.02-18.92,15.22-48.92,15.52-67.96.36-8.71-6.94-13.21-18.06-26.28-18.08-9.88,0-15.58,2-26.06-.91-21.91-6.08-38.47-25.35-40.36-48.21-.88-10.62,3.35-18.79-4.12-28.15-3.36-4.21-10.06-7.62-13.93-11.59-19.15-19.62-19.79-52.34-2.95-73.57,5.08-6.4,14.26-10.58,16.54-18.74,2.44-8.75-1.42-20.29.3-30.48,4.15-24.59,25.46-43.95,50.34-45.74,12.02-.87,20.71,4.3,31.15-4.88,4.17-3.67,8.04-10.69,12.39-14.64,8.61-7.83,20.96-12.49,32.5-13.29Z"/>
          <path class="cls-5" d="M206.45,52.55c14.44-1.01,28.57,2.68,40.17,11.44,5.78,4.37,12.35,14.39,18.17,17.08,9.04,4.18,19.76.82,29.59,1.66,26.69,2.28,49.46,26.98,51.65,53.33,1.08,13.03-4.42,21.92,6.81,32.46,5.59,5.25,12.26,9.23,17.11,15.75,16.23,21.81,14.78,53.33-2.65,73.99-6.8,8.05-15.93,10.12-17.24,22.02-.73,6.59,1.44,13.01,1.45,19.24.03,29.34-23.82,56.23-53.14,58.88-8.91.81-18.64-2.41-26.82.43-10.06,3.5-15.67,15.71-24.04,22.44-20.2,16.25-52.23,16.57-72.55.38-9.3-7.41-14.1-19.28-28.05-19.3-10.55,0-16.63,2.14-27.82-.97-23.39-6.49-41.07-27.06-43.09-51.47-.94-11.34,3.57-20.06-4.4-30.05-3.59-4.5-10.74-8.13-14.88-12.37-20.45-20.94-21.13-55.88-3.15-78.54,5.42-6.83,15.22-11.3,17.65-20.01,2.61-9.34-1.52-21.65.32-32.53,4.43-26.25,27.18-46.91,53.74-48.83,12.83-.93,22.11,4.59,33.25-5.21,4.45-3.92,8.58-11.41,13.22-15.63,9.2-8.36,22.38-13.33,34.69-14.19Z"/>
          <path class="cls-2" d="M206.86,39.56c15.36-1.07,30.38,2.84,42.71,12.16,6.15,4.64,13.13,15.3,19.32,18.17,9.61,4.45,21.01.87,31.46,1.77,28.37,2.42,52.59,28.68,54.91,56.7,1.15,13.85-4.7,23.31,7.24,34.51,5.95,5.58,13.03,9.82,18.19,16.75,17.25,23.19,15.72,56.71-2.82,78.67-7.23,8.56-16.93,10.76-18.34,23.41-.78,7,1.53,13.83,1.54,20.45.03,31.2-25.32,59.79-56.5,62.61-9.48.86-19.81-2.57-28.51.46-10.69,3.72-16.67,16.71-25.56,23.86-21.48,17.28-55.53,17.62-77.13.41-9.89-7.88-15-20.5-29.82-20.52-11.22,0-17.68,2.27-29.57-1.03-24.87-6.9-43.66-28.77-45.81-54.72-1-12.06,3.8-21.32-4.68-31.96-3.82-4.78-11.42-8.65-15.82-13.15-21.74-22.27-22.46-59.41-3.35-83.51,5.76-7.26,16.18-12.01,18.77-21.28,2.77-9.93-1.62-23.02.34-34.59,4.71-27.91,28.9-49.88,57.14-51.92,13.64-.98,23.51,4.88,35.36-5.54,4.74-4.17,9.13-12.13,14.06-16.61,9.78-8.89,23.79-14.17,36.89-15.09Z"/>
          <path class="cls-4" d="M207.27,26.58c16.27-1.14,32.18,3.01,45.26,12.88,6.51,4.92,13.92,16.21,20.47,19.25,10.18,4.71,22.26.93,33.34,1.87,30.06,2.57,55.72,30.39,58.18,60.08,1.22,14.68-4.98,24.7,7.67,36.57,6.3,5.91,13.81,10.4,19.27,17.74,18.28,24.57,16.66,60.08-2.99,83.35-7.66,9.07-17.94,11.4-19.43,24.81-.82,7.42,1.62,14.65,1.63,21.67.03,33.06-26.83,63.34-59.87,66.33-10.04.91-20.99-2.72-30.21.48-11.33,3.94-17.66,17.7-27.08,25.28-22.76,18.31-58.84,18.67-81.72.43-10.48-8.35-15.89-21.72-31.6-21.74-11.89,0-18.74,2.41-31.33-1.09-26.35-7.31-46.26-30.49-48.54-57.98-1.06-12.77,4.03-22.59-4.96-33.86-4.04-5.07-12.1-9.16-16.76-13.93-23.03-23.59-23.8-62.95-3.55-88.48,6.1-7.7,17.14-12.73,19.88-22.54,2.94-10.52-1.71-24.39.36-36.65,4.99-29.57,30.62-52.85,60.54-55.01,14.45-1.04,24.91,5.17,37.46-5.87,5.02-4.41,9.67-12.85,14.89-17.6,10.36-9.42,25.21-15.02,39.08-15.99Z"/>
          <path class="cls-6" d="M207.68,13.59c17.18-1.2,33.99,3.18,47.8,13.61,6.88,5.19,14.7,17.12,21.62,20.33,10.75,4.98,23.51.98,35.21,1.98,31.75,2.71,58.85,32.1,61.45,63.45,1.28,15.5-5.26,26.08,8.1,38.62,6.65,6.25,14.58,10.98,20.35,18.74,19.31,25.95,17.59,63.45-3.16,88.03-8.09,9.58-18.95,12.04-20.52,26.2-.87,7.84,1.72,15.48,1.72,22.89.03,34.91-28.34,66.9-63.23,70.06-10.61.96-22.17-2.87-31.9.51-11.96,4.16-18.65,18.7-28.6,26.7-24.03,19.33-62.14,19.72-86.31.45-11.06-8.82-16.78-22.94-33.37-22.96-12.55,0-19.79,2.54-33.09-1.15-27.83-7.72-48.86-32.2-51.26-61.24-1.12-13.49,4.25-23.86-5.24-35.76-4.27-5.35-12.78-9.68-17.7-14.72-24.33-24.92-25.14-66.48-3.75-93.45,6.45-8.13,18.11-13.44,21-23.81,3.1-11.11-1.81-25.76.38-38.71,5.28-31.23,32.34-55.82,63.94-58.1,15.27-1.1,26.31,5.46,39.56-6.2,5.3-4.66,10.21-13.58,15.73-18.59,10.94-9.95,26.63-15.86,41.27-16.88Z"/>
          <path class="cls-3" d="M208.09.61c18.1-1.27,35.8,3.35,50.34,14.33,7.25,5.47,15.48,18.03,22.77,21.41,11.32,5.24,24.76,1.03,37.08,2.08,33.44,2.85,61.98,33.8,64.71,66.82,1.35,16.33-5.53,27.47,8.53,40.67,7.01,6.58,15.36,11.57,21.43,19.73,20.33,27.33,18.53,66.83-3.32,92.71-8.52,10.09-19.96,12.68-21.61,27.59-.91,8.25,1.81,16.3,1.81,24.1.03,36.77-29.85,70.46-66.59,73.78-11.17,1.01-23.35-3.03-33.6.54-12.6,4.38-19.64,19.69-30.12,28.12-25.31,20.36-65.44,20.76-90.9.48-11.65-9.29-17.67-24.16-35.15-24.18-13.22-.01-20.84,2.68-34.85-1.21-29.31-8.13-51.46-33.91-53.99-64.49-1.18-14.21,4.48-25.13-5.52-37.66-4.5-5.64-13.46-10.19-18.64-15.5-25.62-26.24-26.47-70.01-3.95-98.41,6.79-8.56,19.07-14.16,22.12-25.07,3.27-11.7-1.9-27.13.4-40.77,5.56-32.89,34.06-58.78,67.34-61.18,16.08-1.16,27.71,5.75,41.67-6.53,5.58-4.91,10.75-14.3,16.57-19.58C176.14,7.92,192.66,1.69,208.09.61Z"/>
        </g>
      </g>
    </g>
  </g>
</svg>